<?xml version="1.0" encoding="utf-8"?>
<!-- Generator: Adobe Illustrator 17.0.0, SVG Export Plug-In . SVG Version: 6.00 Build 0)  -->
<!DOCTYPE svg PUBLIC "-//W3C//DTD SVG 1.1//EN" "http://www.w3.org/Graphics/SVG/1.1/DTD/svg11.dtd">
<svg version="1.1"
	 id="Capa_1" xmlns:sodipodi="http://sodipodi.sourceforge.net/DTD/sodipodi-0.dtd" xmlns:dc="http://purl.org/dc/elements/1.1/" xmlns:inkscape="http://www.inkscape.org/namespaces/inkscape" xmlns:rdf="http://www.w3.org/1999/02/22-rdf-syntax-ns#" xmlns:svg="http://www.w3.org/2000/svg" xmlns:cc="http://creativecommons.org/ns#" inkscape:version="0.91 r13725" sodipodi:docname="plano.svg"
	 xmlns="http://www.w3.org/2000/svg" xmlns:xlink="http://www.w3.org/1999/xlink" x="0px" y="0px" width="570px" height="571px"
	 viewBox="0 0 570 571" enable-background="new 0 0 570 571" xml:space="preserve">
<sodipodi:namedview  id="namedview4855" inkscape:zoom="1.2293491" gridtolerance="10" inkscape:cx="311.47269" guidetolerance="10" objecttolerance="10" showgrid="false" inkscape:cy="316.61537" pagecolor="#ffffff" bordercolor="#666666" borderopacity="1" inkscape:window-height="737" inkscape:pageopacity="0" inkscape:pageshadow="2" inkscape:window-maximized="1" inkscape:window-y="-8" inkscape:window-x="-8" inkscape:window-width="1280" inkscape:current-layer="Capa_1">
	</sodipodi:namedview>
<g>
	<g>
		<path fill="#FFFFFF" d="M282.615,488.965c113.223,0,205.009-91.786,205.009-205.009c0-113.222-91.786-205.009-205.009-205.009
			S77.605,170.733,77.605,283.956C77.605,397.179,169.392,488.965,282.615,488.965"/>
	</g>
</g>
<g>
	<g>
		<path fill="#26A9E0" d="M283.92,533.38c-33.665,0-66.331-6.597-97.093-19.607c-29.703-12.564-56.376-30.546-79.277-53.447
			c-22.901-22.902-40.884-49.574-53.447-79.278c-13.011-30.761-19.608-63.428-19.608-97.093s6.597-66.331,19.608-97.092
			c12.564-29.703,30.546-56.376,53.447-79.277c22.901-22.901,49.574-40.884,79.277-53.447
			c30.761-13.011,63.428-19.608,97.093-19.608c33.665,0,66.331,6.597,97.092,19.608c29.703,12.563,56.376,30.545,79.277,53.447
			c22.902,22.901,40.884,49.574,53.447,79.277c13.011,30.761,19.608,63.428,19.608,97.092s-6.597,66.331-19.608,97.093
			c-12.563,29.703-30.545,56.376-53.447,79.278c-22.901,22.901-49.574,40.883-79.277,53.447
			C350.251,526.783,317.585,533.38,283.92,533.38z M283.92,67.791c-57.74,0-112.024,22.485-152.852,63.313
			c-40.828,40.828-63.313,95.112-63.313,152.852s22.485,112.024,63.313,152.852c40.828,40.828,95.112,63.313,152.852,63.313
			s112.023-22.485,152.852-63.313c40.828-40.828,63.313-95.112,63.313-152.852S477.6,171.932,436.771,131.104
			C395.943,90.276,341.66,67.791,283.92,67.791z"/>
	</g>
</g>
<g>
</g>
<g>
</g>
<g>
</g>
<g>
</g>
<g>
</g>
<g>
</g>
<g>
</g>
<g>
</g>
<g>
</g>
<g>
</g>
<g>
</g>
<g>
</g>
<g>
</g>
<g>
</g>
<g>
</g>
<g>
</g>
<g>
</g>
<g>
</g>
<g>
</g>
<g>
</g>
<g>
</g>
<g>
</g>
<g>
</g>
<g>
</g>
<g>
</g>
<g>
</g>
<g>
</g>
<g>
</g>
<g>
</g>
<g>
</g>
<g>
</g>
<g>
</g>
<g>
</g>
<g>
</g>
<g>
</g>
<g>
</g>
<g>
</g>
<g>
</g>
<g>
</g>
<g>
</g>
<g>
	<g>
		<rect x="282.615" y="29.759" fill="#FFFFFF" width="2.608" height="508.03"/>
	</g>
</g>
<g>
</g>
<g>
</g>
<g>
</g>
<g>
</g>
<g>
</g>
<g>
</g>
<g>
</g>
<g>
</g>
<g>
</g>
<g>
</g>
<g>
</g>
<g>
</g>
<g>
</g>
<g>
</g>
<g>
</g>
<g>
</g>
<g>
</g>
<g>
</g>
<g>
</g>
<g>
</g>
<g>
</g>
<g>
</g>
<g>
</g>
<g>
</g>
<g>
</g>
<g>
</g>
<g>
</g>
<g>
</g>
<g>
</g>
<g>
</g>
<g>
</g>
<g>
</g>
<g>
</g>
<g>
</g>
<g>
</g>
<g>
</g>
<g>
</g>
<g>
</g>
<g>
</g>
<g>
	<g>
		<path fill="#B2B3B3" d="M283.92,487.564c-27.481,0-54.147-5.385-79.258-16.006c-24.247-10.256-46.021-24.935-64.715-43.629
			c-18.695-18.695-33.374-40.468-43.63-64.715c-10.621-25.111-16.006-51.777-16.006-79.258s5.385-54.147,16.006-79.258
			c10.256-24.247,24.935-46.02,43.63-64.715c18.694-18.695,40.468-33.374,64.715-43.629c25.111-10.621,51.777-16.006,79.258-16.006
			c27.481,0,54.147,5.385,79.258,16.006c24.247,10.256,46.021,24.935,64.715,43.629c18.695,18.694,33.374,40.468,43.629,64.715
			c10.621,25.111,16.006,51.777,16.006,79.258s-5.385,54.147-16.006,79.258c-10.256,24.247-24.934,46.02-43.629,64.715
			c-18.694,18.694-40.468,33.373-64.715,43.629C338.067,482.179,311.401,487.564,283.92,487.564z M283.92,90.023
			c-51.801,0-100.502,20.173-137.132,56.802c-36.629,36.629-56.802,85.33-56.802,137.131s20.173,100.502,56.802,137.132
			c36.629,36.629,85.33,56.801,137.132,56.801s100.502-20.172,137.131-56.801c36.629-36.629,56.802-85.33,56.802-137.132
			s-20.172-100.502-56.802-137.131C384.422,110.195,335.721,90.023,283.92,90.023z"/>
	</g>
</g>
<g>
	<path fill="#33393D" d="M239.531,106.646l0.46,1.628l-8.1,2.29l1.306,4.62l7.55-2.135l0.46,1.628l-7.55,2.135l1.421,5.026
		l8.16-2.308l0.46,1.628l-10.094,2.854l-4.108-14.53L239.531,106.646z"/>
	<path fill="#33393D" d="M244.758,105.498l2.702,13.133l7.83-1.611l0.341,1.657l-9.798,2.016l-3.043-14.79L244.758,105.498z"/>
	<path fill="#33393D" d="M265.493,102.133l0.22,1.678l-8.345,1.096l0.625,4.76l7.779-1.021l0.22,1.678l-7.779,1.021l0.68,5.179
		l8.408-1.104l0.22,1.678l-10.4,1.366l-1.966-14.971L265.493,102.133z"/>
	<path fill="#33393D" d="M278.138,103.501c-0.794-0.498-1.719-0.721-2.775-0.669c-0.901,0.043-1.664,0.25-2.288,0.62
		c-0.625,0.369-1.13,0.849-1.518,1.439c-0.388,0.59-0.662,1.257-0.824,1.999c-0.162,0.742-0.223,1.507-0.185,2.296
		c0.042,0.859,0.18,1.667,0.415,2.425c0.234,0.758,0.573,1.412,1.017,1.962c0.443,0.55,0.997,0.979,1.661,1.285
		c0.664,0.307,1.447,0.438,2.349,0.394c0.662-0.032,1.244-0.17,1.748-0.414c0.503-0.243,0.932-0.567,1.287-0.973
		c0.354-0.405,0.624-0.88,0.809-1.426c0.186-0.545,0.284-1.128,0.296-1.75l2.007-0.098c-0.105,1.911-0.688,3.421-1.749,4.531
		c-1.061,1.111-2.556,1.713-4.485,1.807c-1.169,0.057-2.2-0.094-3.092-0.453s-1.645-0.876-2.256-1.552
		c-0.612-0.676-1.085-1.485-1.42-2.429c-0.335-0.943-0.53-1.965-0.583-3.063c-0.053-1.099,0.051-2.138,0.314-3.117
		s0.676-1.843,1.24-2.591c0.563-0.747,1.282-1.35,2.156-1.81c0.874-0.458,1.888-0.716,3.043-0.772
		c0.789-0.039,1.54,0.031,2.254,0.208s1.356,0.457,1.925,0.838c0.569,0.382,1.051,0.87,1.448,1.464
		c0.396,0.595,0.669,1.291,0.822,2.088l-2.007,0.098C279.467,104.777,278.932,103.999,278.138,103.501z"/>
	<path fill="#33393D" d="M294.207,103.698c-0.746-0.565-1.648-0.869-2.705-0.91c-0.902-0.035-1.68,0.104-2.334,0.417
		c-0.654,0.313-1.201,0.747-1.639,1.301c-0.438,0.555-0.77,1.194-0.994,1.919c-0.227,0.725-0.355,1.482-0.385,2.271
		c-0.035,0.859,0.033,1.677,0.199,2.452c0.168,0.776,0.447,1.457,0.842,2.043c0.393,0.587,0.908,1.062,1.543,1.425
		s1.402,0.562,2.305,0.598c0.662,0.026,1.254-0.06,1.777-0.258c0.521-0.198,0.979-0.484,1.365-0.857
		c0.389-0.373,0.699-0.823,0.932-1.35c0.232-0.527,0.381-1.1,0.447-1.718l2.008,0.078c-0.271,1.894-0.984,3.348-2.137,4.361
		c-1.154,1.013-2.697,1.482-4.627,1.407c-1.17-0.045-2.184-0.286-3.041-0.722s-1.562-1.017-2.112-1.744
		c-0.55-0.727-0.951-1.575-1.202-2.544c-0.251-0.969-0.356-2.003-0.313-3.103c0.043-1.099,0.238-2.125,0.586-3.078
		c0.347-0.953,0.834-1.777,1.461-2.472c0.627-0.695,1.395-1.233,2.307-1.614c0.91-0.38,1.943-0.548,3.1-0.503
		c0.787,0.031,1.531,0.166,2.227,0.404s1.311,0.573,1.844,1.003c0.535,0.43,0.973,0.958,1.314,1.585s0.555,1.344,0.637,2.152
		l-2.008-0.078C295.42,105.085,294.953,104.263,294.207,103.698z"/>
	<path fill="#33393D" d="M303.217,102.306l-1.496,15.025l-1.999-0.199l1.496-15.026L303.217,102.306z"/>
	<path fill="#33393D" d="M306.164,107.126c0.452-0.89,1.037-1.648,1.754-2.274c0.716-0.625,1.555-1.082,2.517-1.367
		c0.96-0.286,2.032-0.332,3.215-0.139s2.185,0.579,3.005,1.155c0.819,0.577,1.47,1.276,1.949,2.098
		c0.48,0.821,0.793,1.726,0.938,2.714c0.146,0.988,0.136,1.99-0.03,3.006c-0.166,1.016-0.476,1.969-0.928,2.859
		c-0.453,0.89-1.038,1.648-1.754,2.274c-0.717,0.626-1.556,1.078-2.515,1.357c-0.96,0.278-2.032,0.321-3.214,0.128
		c-1.184-0.193-2.186-0.575-3.006-1.145c-0.821-0.57-1.473-1.266-1.952-2.087c-0.48-0.821-0.793-1.726-0.938-2.714
		c-0.146-0.988-0.136-1.99,0.03-3.006S305.711,108.017,306.164,107.126z M307.147,112.58c0.075,0.762,0.274,1.47,0.596,2.122
		c0.322,0.653,0.78,1.21,1.377,1.672c0.596,0.461,1.346,0.766,2.251,0.914c0.904,0.148,1.712,0.098,2.424-0.15
		s1.325-0.63,1.838-1.146s0.926-1.124,1.24-1.822s0.533-1.424,0.656-2.175s0.146-1.508,0.071-2.271
		c-0.076-0.762-0.274-1.47-0.597-2.123c-0.321-0.652-0.78-1.209-1.376-1.671c-0.597-0.462-1.347-0.767-2.251-0.915
		c-0.904-0.147-1.713-0.098-2.425,0.15c-0.712,0.248-1.324,0.63-1.837,1.146c-0.514,0.516-0.927,1.124-1.241,1.822
		s-0.532,1.424-0.655,2.175C307.096,111.061,307.072,111.817,307.147,112.58z M315.062,99.163l-2.557,3.054l1.336,0.218l3.495-2.9
		L315.062,99.163z"/>
	<path fill="#33393D" d="M326.222,106.185l4.617,13.851l0.041,0.011l3.079-11.852l1.842,0.479l-3.797,14.615l-2.129-0.553
		l-4.588-13.712l-0.041-0.011l-3.047,11.729l-1.842-0.479l3.797-14.615L326.222,106.185z"/>
</g>
<g>
	<path fill="#33393D" d="M379.52,129.229c1.23,0.75,1.969,1.633,2.216,2.649s0.024,2.095-0.669,3.233s-1.551,1.835-2.57,2.088
		c-1.021,0.254-2.143,0-3.365-0.76l-3.725-2.268l-3.037,4.988l-1.623-0.988l7.426-12.197L379.52,129.229z M375.416,134.738
		c0.915,0.574,1.705,0.797,2.367,0.67c0.663-0.128,1.217-0.557,1.66-1.285s0.568-1.414,0.373-2.055
		c-0.195-0.643-0.754-1.244-1.676-1.805l-3.178-1.936l-2.725,4.477L375.416,134.738z"/>
	<path fill="#33393D" d="M383.113,136.574c0.762-0.559,1.578-0.949,2.449-1.172s1.773-0.25,2.708-0.082
		c0.933,0.168,1.856,0.586,2.772,1.254c0.916,0.666,1.598,1.419,2.044,2.256c0.446,0.836,0.697,1.704,0.752,2.602
		c0.056,0.898-0.066,1.795-0.364,2.691c-0.299,0.896-0.734,1.738-1.308,2.524s-1.241,1.46-2.003,2.019s-1.578,0.949-2.449,1.172
		s-1.771,0.246-2.701,0.072s-1.852-0.594-2.768-1.262c-0.916-0.667-1.6-1.416-2.05-2.247s-0.702-1.696-0.758-2.594
		s0.067-1.796,0.365-2.691c0.298-0.896,0.733-1.737,1.307-2.524S382.352,137.133,383.113,136.574z M381.619,141.598
		c-0.263,0.675-0.396,1.357-0.402,2.045c-0.007,0.688,0.143,1.354,0.449,1.998s0.81,1.221,1.51,1.73
		c0.701,0.512,1.404,0.813,2.111,0.908c0.707,0.094,1.387,0.032,2.039-0.186c0.654-0.217,1.262-0.553,1.824-1.008
		c0.563-0.457,1.057-0.977,1.481-1.558c0.423-0.581,0.767-1.21,1.028-1.886c0.26-0.676,0.395-1.357,0.401-2.046
		c0.006-0.688-0.144-1.354-0.45-1.998s-0.81-1.222-1.51-1.731c-0.701-0.511-1.404-0.812-2.111-0.906
		c-0.707-0.096-1.386-0.033-2.039,0.184s-1.262,0.553-1.824,1.01c-0.562,0.455-1.057,0.975-1.48,1.557
		S381.879,140.922,381.619,141.598z"/>
	<path fill="#33393D" d="M402.984,149.088c-0.18-0.763-0.643-1.466-1.39-2.11c-0.303-0.261-0.627-0.488-0.972-0.681
		c-0.346-0.191-0.692-0.314-1.041-0.369c-0.35-0.055-0.695-0.021-1.035,0.098c-0.342,0.119-0.664,0.356-0.969,0.709
		c-0.287,0.334-0.423,0.688-0.404,1.066c0.019,0.376,0.135,0.771,0.35,1.186s0.492,0.844,0.833,1.286
		c0.339,0.442,0.681,0.899,1.022,1.37c0.342,0.472,0.661,0.954,0.958,1.447c0.296,0.494,0.508,0.998,0.636,1.513
		c0.127,0.516,0.138,1.035,0.029,1.558c-0.107,0.523-0.393,1.053-0.854,1.588c-0.497,0.575-1.051,0.957-1.66,1.144
		c-0.61,0.187-1.229,0.234-1.854,0.144c-0.626-0.092-1.239-0.294-1.839-0.609c-0.6-0.314-1.147-0.686-1.642-1.112
		c-0.605-0.522-1.113-1.093-1.522-1.71c-0.41-0.617-0.686-1.256-0.829-1.917s-0.128-1.333,0.05-2.017
		c0.176-0.685,0.547-1.355,1.113-2.012l1.363,1.176c-0.393,0.455-0.642,0.922-0.748,1.402c-0.105,0.48-0.107,0.951-0.002,1.412
		c0.105,0.459,0.305,0.906,0.602,1.338s0.647,0.821,1.051,1.17c0.323,0.279,0.675,0.529,1.055,0.752
		c0.381,0.223,0.766,0.373,1.154,0.453s0.773,0.064,1.152-0.049s0.738-0.366,1.078-0.76c0.322-0.374,0.485-0.762,0.488-1.164
		c0.004-0.402-0.096-0.817-0.297-1.247c-0.203-0.429-0.471-0.868-0.807-1.315c-0.335-0.448-0.676-0.906-1.021-1.371
		c-0.348-0.467-0.673-0.941-0.979-1.424c-0.305-0.484-0.532-0.971-0.682-1.461c-0.148-0.49-0.181-0.983-0.095-1.481
		s0.343-0.994,0.77-1.489c0.47-0.545,0.988-0.921,1.556-1.129c0.564-0.207,1.143-0.279,1.734-0.219
		c0.59,0.059,1.174,0.229,1.754,0.508c0.578,0.279,1.113,0.631,1.608,1.059c0.556,0.479,1.013,0.988,1.375,1.529
		c0.361,0.541,0.599,1.107,0.714,1.699c0.114,0.592,0.09,1.191-0.073,1.799s-0.491,1.219-0.985,1.831l-1.363-1.176
		C402.957,150.654,403.162,149.85,402.984,149.088z"/>
	<path fill="#33393D" d="M406.787,152.066l1.113-1.15l8.205,7.943l-1.113,1.15l-3.42-3.312l-8.819,9.11l-1.365-1.321l8.819-9.11
		L406.787,152.066z"/>
	<path fill="#33393D" d="M414.287,176.93c-1.328-0.138-2.582-0.887-3.76-2.248c-1.205-1.391-1.815-2.763-1.832-4.115
		s0.696-2.653,2.138-3.901l6.894-5.972l1.244,1.436l-6.895,5.972c-0.967,0.837-1.478,1.73-1.531,2.677
		c-0.054,0.945,0.338,1.902,1.176,2.869c0.795,0.918,1.648,1.4,2.562,1.446s1.854-0.349,2.821-1.188l6.894-5.971l1.244,1.437
		l-6.894,5.971C416.968,176.538,415.613,177.066,414.287,176.93z"/>
	<path fill="#33393D" d="M431.661,177.898c0.803,1.098,1.161,2.152,1.076,3.165s-0.597,1.86-1.532,2.546
		c-0.699,0.512-1.43,0.801-2.189,0.869s-1.491-0.176-2.197-0.734l-0.032,0.024c0.18,0.381,0.271,0.731,0.272,1.052
		c0.004,0.319-0.055,0.618-0.174,0.896c-0.119,0.275-0.286,0.539-0.501,0.787s-0.45,0.49-0.707,0.728
		c-0.264,0.227-0.537,0.451-0.819,0.675c-0.283,0.223-0.549,0.459-0.797,0.707c-0.248,0.246-0.47,0.504-0.663,0.77
		c-0.194,0.266-0.329,0.551-0.405,0.854l-1.25-1.711c0.039-0.195,0.146-0.387,0.324-0.572c0.176-0.188,0.387-0.379,0.633-0.575
		c0.245-0.195,0.508-0.405,0.791-0.628c0.283-0.224,0.545-0.465,0.785-0.723c0.248-0.248,0.475-0.496,0.681-0.746
		s0.353-0.514,0.438-0.791s0.103-0.57,0.051-0.88c-0.053-0.309-0.217-0.651-0.493-1.028l-2.738-3.744l-4.924,3.602l-1.121-1.533
		l11.525-8.432L431.661,177.898z M426.667,182.047c0.29,0.283,0.601,0.49,0.935,0.617c0.332,0.129,0.684,0.168,1.055,0.121
		c0.37-0.048,0.765-0.226,1.185-0.532c0.581-0.425,0.937-0.933,1.066-1.523c0.129-0.591-0.069-1.247-0.598-1.968l-2.786-3.81
		l-4.02,2.94l2.338,3.196C426.102,181.443,426.377,181.764,426.667,182.047z"/>
	<path fill="#33393D" d="M439.291,189.41l-9.217,12.252l-1.104-1.787l2.838-3.588l-3.174-5.139l-4.499,0.898l-1.02-1.651
		l15.071-2.772L439.291,189.41z M432.855,194.936l4.415-5.524l-0.021-0.033l-6.938,1.44L432.855,194.936z"/>
</g>
<g>
	<path fill="#33393D" d="M110.514,331.789c-0.281,0.84-0.282,1.74,0,2.699c0.24,0.819,0.599,1.475,1.077,1.967
		c0.478,0.492,1.031,0.852,1.66,1.076c0.629,0.227,1.302,0.33,2.02,0.314s1.435-0.129,2.151-0.339
		c0.781-0.229,1.493-0.535,2.138-0.919c0.645-0.384,1.171-0.84,1.579-1.369s0.678-1.134,0.813-1.812
		c0.134-0.678,0.082-1.428-0.159-2.246c-0.176-0.602-0.432-1.106-0.767-1.516c-0.335-0.408-0.729-0.73-1.18-0.967
		c-0.451-0.235-0.948-0.379-1.491-0.428c-0.542-0.049-1.101-0.011-1.675,0.116l-0.535-1.823c1.78-0.327,3.298-0.127,4.554,0.604
		c1.256,0.729,2.141,1.97,2.655,3.723c0.312,1.062,0.401,2.043,0.27,2.943c-0.132,0.9-0.441,1.706-0.927,2.418
		c-0.485,0.713-1.125,1.328-1.918,1.845c-0.793,0.518-1.688,0.923-2.687,1.216c-0.998,0.292-1.976,0.426-2.936,0.402
		c-0.958-0.025-1.844-0.213-2.656-0.566c-0.812-0.352-1.525-0.879-2.142-1.58c-0.615-0.703-1.077-1.578-1.385-2.627
		c-0.21-0.717-0.313-1.423-0.309-2.119c0.004-0.695,0.119-1.348,0.344-1.955c0.225-0.608,0.566-1.16,1.025-1.656
		s1.039-0.901,1.738-1.218l0.535,1.823C111.393,330.285,110.796,330.949,110.514,331.789z"/>
	<path fill="#33393D" d="M111.144,325.324c-0.939-0.104-1.804-0.368-2.597-0.794c-0.792-0.426-1.475-1.017-2.048-1.772
		c-0.573-0.755-0.971-1.688-1.194-2.799c-0.223-1.111-0.215-2.127,0.022-3.045c0.238-0.918,0.64-1.726,1.207-2.424
		c0.567-0.699,1.264-1.277,2.089-1.734c0.826-0.459,1.717-0.783,2.671-0.975s1.901-0.235,2.839-0.131
		c0.939,0.104,1.805,0.369,2.597,0.795s1.472,1.018,2.039,1.773c0.566,0.757,0.961,1.691,1.184,2.802
		c0.223,1.111,0.219,2.126-0.012,3.042s-0.63,1.725-1.197,2.422c-0.567,0.699-1.264,1.277-2.09,1.735s-1.716,0.782-2.67,0.974
		S112.083,325.43,111.144,325.324z M115.643,322.638c0.649-0.321,1.209-0.731,1.68-1.234c0.47-0.503,0.811-1.094,1.021-1.775
		c0.21-0.681,0.23-1.446,0.06-2.297c-0.17-0.85-0.484-1.548-0.94-2.096s-0.999-0.962-1.626-1.245
		c-0.627-0.281-1.303-0.445-2.026-0.49s-1.438,0.002-2.144,0.145c-0.706,0.141-1.384,0.372-2.033,0.693
		c-0.65,0.32-1.21,0.731-1.68,1.234c-0.471,0.502-0.811,1.094-1.021,1.775s-0.23,1.446-0.06,2.296
		c0.17,0.851,0.484,1.549,0.94,2.097c0.457,0.547,0.999,0.962,1.626,1.244c0.628,0.281,1.303,0.445,2.026,0.491
		s1.438-0.003,2.144-0.145C114.315,323.189,114.994,322.959,115.643,322.638z"/>
	<path fill="#33393D" d="M116.917,299.853c0.415,0.786,0.668,1.597,0.759,2.432c0.116,1.061,0.024,2.029-0.275,2.907
		s-0.749,1.645-1.348,2.301c-0.599,0.655-1.312,1.183-2.141,1.582c-0.828,0.398-1.706,0.649-2.634,0.751
		c-1.034,0.112-2.033,0.078-2.999-0.104c-0.965-0.183-1.83-0.518-2.594-1.004s-1.401-1.127-1.911-1.924
		c-0.51-0.795-0.826-1.757-0.95-2.883c-0.084-0.77-0.074-1.504,0.03-2.207c0.104-0.702,0.319-1.343,0.645-1.922
		c0.326-0.578,0.764-1.082,1.313-1.512c0.55-0.429,1.235-0.756,2.056-0.979l0.207,1.889c-0.533,0.152-0.982,0.375-1.345,0.67
		s-0.651,0.641-0.862,1.039c-0.211,0.399-0.354,0.841-0.429,1.325c-0.074,0.484-0.083,0.991-0.024,1.521
		c0.094,0.862,0.347,1.581,0.759,2.16s0.921,1.032,1.527,1.362c0.606,0.329,1.281,0.547,2.023,0.654
		c0.743,0.105,1.492,0.117,2.248,0.035c0.742-0.082,1.443-0.266,2.102-0.553c0.66-0.286,1.229-0.664,1.707-1.132
		c0.479-0.468,0.841-1.021,1.086-1.658c0.246-0.637,0.325-1.353,0.238-2.148c-0.081-0.742-0.272-1.386-0.573-1.929
		c-0.301-0.544-0.682-0.988-1.142-1.334c-0.46-0.346-0.983-0.586-1.568-0.724c-0.585-0.138-1.201-0.157-1.847-0.06l0.496,4.533
		l-1.591,0.174l-0.681-6.223l7.475-0.818l0.131,1.193l-1.715,0.69C115.894,298.436,116.503,299.066,116.917,299.853z"/>
	<path fill="#33393D" d="M102.218,291.898l11.402-7.786l0-0.04l-11.577,0.268l-0.042-1.799l14.276-0.33l0.048,2.079l-11.284,7.724
		l0.001,0.039l11.457-0.265l0.042,1.8l-14.276,0.33L102.218,291.898z"/>
	<path fill="#33393D" d="M102.218,276.86l14.272,0.475l-0.063,1.899l-14.272-0.476L102.218,276.86z"/>
	<path fill="#33393D" d="M103.824,274.782l-1.595-0.13l0.93-11.382l1.595,0.13l-0.388,4.744l12.638,1.032l-0.155,1.894
		l-12.638-1.032L103.824,274.782z"/>
	<path fill="#33393D" d="M103.75,259.232l14.16,1.852l-0.247,1.884l-14.159-1.852L103.75,259.232z"/>
	<path fill="#33393D" d="M118.913,254.658l-14.951,2.365l0.367-2.006l12.913-1.784l0.007-0.039l-11.436-6.282l0.357-1.947
		l13.131,7.568L118.913,254.658z"/>
	<path fill="#33393D" d="M110.789,244.1c-0.795-0.51-1.453-1.131-1.975-1.864c-0.521-0.733-0.871-1.565-1.05-2.497
		c-0.178-0.931-0.121-1.943,0.172-3.038s0.75-2.001,1.37-2.719c0.62-0.717,1.339-1.263,2.157-1.638
		c0.818-0.374,1.699-0.583,2.643-0.627c0.943-0.044,1.885,0.06,2.825,0.312c0.94,0.252,1.808,0.633,2.603,1.143
		c0.795,0.51,1.454,1.132,1.975,1.864c0.521,0.733,0.868,1.565,1.04,2.494c0.172,0.93,0.111,1.942-0.182,3.037
		c-0.293,1.095-0.747,2.001-1.36,2.72c-0.614,0.72-1.33,1.267-2.147,1.641s-1.699,0.584-2.643,0.628
		c-0.944,0.044-1.885-0.061-2.826-0.312C112.452,244.99,111.584,244.61,110.789,244.1z M116.013,243.688
		c0.725,0.001,1.409-0.119,2.053-0.36c0.645-0.241,1.212-0.621,1.703-1.139c0.491-0.517,0.848-1.194,1.072-2.031
		c0.225-0.837,0.253-1.603,0.087-2.296c-0.167-0.693-0.468-1.306-0.906-1.837s-0.97-0.978-1.598-1.339
		c-0.628-0.361-1.29-0.636-1.985-0.822c-0.695-0.186-1.405-0.279-2.13-0.28c-0.724-0.001-1.409,0.119-2.053,0.361
		c-0.645,0.241-1.212,0.62-1.703,1.138s-0.848,1.194-1.072,2.031c-0.224,0.838-0.253,1.603-0.087,2.296
		c0.166,0.693,0.468,1.306,0.905,1.837c0.438,0.531,0.97,0.978,1.598,1.34c0.628,0.361,1.29,0.635,1.985,0.821
		S115.289,243.688,116.013,243.688z"/>
</g>
<g>
	<path fill="#33393D" d="M135.61,371.346l-1.396,0.782l-3.892-6.943l-3.96,2.22l3.628,6.473l-1.396,0.782l-3.628-6.473l-4.309,2.416
		l3.921,6.995l-1.396,0.783l-4.851-8.654l12.457-6.981L135.61,371.346z"/>
	<path fill="#33393D" d="M138.026,375.202l-7.426,10.444l12.475-2.97l1.455,2.154l-11.834,7.992l-1.007-1.491l9.845-6.649
		l-0.022-0.033l-12.341,2.953l-0.907-1.343l7.349-10.345l-0.022-0.033l-9.845,6.648l-1.007-1.491l11.834-7.992L138.026,375.202z"/>
	<path fill="#33393D" d="M142.559,389.375c0.878-0.348,1.767-0.519,2.667-0.513c0.899,0.005,1.779,0.208,2.639,0.607
		s1.648,1.038,2.365,1.915c0.717,0.878,1.185,1.778,1.405,2.7c0.219,0.923,0.242,1.825,0.068,2.708
		c-0.175,0.883-0.52,1.72-1.035,2.511s-1.15,1.495-1.904,2.11c-0.754,0.616-1.57,1.098-2.448,1.445
		c-0.878,0.347-1.768,0.518-2.667,0.513c-0.9-0.006-1.777-0.21-2.632-0.613c-0.854-0.404-1.641-1.045-2.357-1.923
		c-0.717-0.877-1.188-1.775-1.413-2.693c-0.225-0.918-0.25-1.818-0.076-2.701s0.519-1.72,1.035-2.511
		c0.515-0.792,1.15-1.495,1.904-2.111C140.864,390.204,141.68,389.723,142.559,389.375z M139.84,393.855
		c-0.424,0.588-0.726,1.213-0.907,1.877s-0.205,1.347-0.071,2.047c0.133,0.7,0.474,1.386,1.022,2.058
		c0.548,0.671,1.152,1.142,1.812,1.412s1.333,0.383,2.02,0.339c0.687-0.045,1.36-0.216,2.02-0.515c0.66-0.298,1.27-0.675,1.827-1.13
		c0.558-0.456,1.048-0.978,1.472-1.564c0.424-0.588,0.727-1.214,0.907-1.877c0.181-0.664,0.204-1.347,0.071-2.047
		c-0.133-0.701-0.474-1.387-1.022-2.058c-0.548-0.672-1.152-1.143-1.812-1.412c-0.66-0.271-1.333-0.384-2.02-0.339
		c-0.687,0.045-1.36,0.216-2.021,0.514c-0.66,0.299-1.269,0.676-1.827,1.131C140.755,392.747,140.264,393.268,139.84,393.855z"/>
	<path fill="#33393D" d="M160.09,405.855c-0.14-0.875-0.557-1.672-1.251-2.392c-0.592-0.614-1.214-1.028-1.866-1.243
		c-0.652-0.215-1.309-0.276-1.97-0.185s-1.307,0.312-1.935,0.658c-0.629,0.348-1.212,0.78-1.75,1.298
		c-0.585,0.565-1.075,1.167-1.468,1.806s-0.648,1.287-0.763,1.945c-0.116,0.658-0.076,1.318,0.12,1.982
		c0.195,0.663,0.589,1.303,1.182,1.917c0.435,0.45,0.896,0.779,1.382,0.986s0.984,0.311,1.494,0.31c0.509,0,1.015-0.104,1.519-0.312
		c0.503-0.208,0.98-0.501,1.43-0.88l1.319,1.368c-1.425,1.115-2.863,1.641-4.314,1.577c-1.451-0.064-2.811-0.754-4.079-2.068
		c-0.769-0.797-1.303-1.624-1.603-2.483c-0.301-0.858-0.401-1.716-0.3-2.572c0.1-0.856,0.382-1.697,0.845-2.523
		s1.069-1.601,1.817-2.322c0.749-0.723,1.553-1.295,2.414-1.718s1.733-0.667,2.616-0.73c0.883-0.064,1.76,0.071,2.631,0.408
		c0.871,0.336,1.686,0.897,2.445,1.685c0.518,0.537,0.937,1.115,1.256,1.734c0.319,0.619,0.52,1.249,0.602,1.893
		c0.083,0.643,0.036,1.29-0.141,1.941c-0.177,0.652-0.502,1.28-0.975,1.886l-1.319-1.368
		C160.009,407.597,160.229,406.73,160.09,405.855z"/>
	<path fill="#33393D" d="M166.956,409.616l-9.722,10.46l-1.392-1.294l9.722-10.459L166.956,409.616z"/>
	<path fill="#33393D" d="M165.981,414.727c0.795-0.51,1.634-0.849,2.518-1.017s1.786-0.139,2.707,0.088
		c0.92,0.227,1.817,0.701,2.69,1.424c0.873,0.724,1.505,1.517,1.898,2.379c0.393,0.863,0.589,1.744,0.588,2.645
		c-0.001,0.899-0.178,1.787-0.532,2.663c-0.354,0.876-0.841,1.688-1.462,2.438c-0.621,0.75-1.329,1.379-2.124,1.89
		c-0.795,0.51-1.635,0.849-2.519,1.017c-0.884,0.168-1.784,0.136-2.701-0.096s-1.811-0.709-2.684-1.432
		c-0.873-0.724-1.508-1.515-1.905-2.372c-0.398-0.857-0.596-1.736-0.595-2.636c0.001-0.899,0.178-1.787,0.532-2.663
		s0.841-1.688,1.462-2.438C164.478,415.866,165.186,415.236,165.981,414.727z M164.176,419.646
		c-0.303,0.658-0.479,1.331-0.529,2.018c-0.049,0.686,0.059,1.359,0.324,2.021c0.265,0.662,0.731,1.27,1.399,1.822
		s1.351,0.898,2.05,1.037c0.699,0.138,1.382,0.119,2.047-0.057c0.666-0.176,1.293-0.474,1.884-0.894
		c0.59-0.42,1.115-0.907,1.575-1.461c0.459-0.555,0.841-1.161,1.144-1.819c0.303-0.658,0.479-1.33,0.528-2.017
		s-0.059-1.36-0.324-2.021c-0.266-0.662-0.732-1.27-1.399-1.822c-0.667-0.554-1.351-0.899-2.05-1.037
		c-0.699-0.139-1.382-0.119-2.047,0.057c-0.666,0.176-1.293,0.474-1.884,0.894s-1.115,0.907-1.575,1.461
		C164.86,418.383,164.479,418.988,164.176,419.646z"/>
	<path fill="#33393D" d="M182.094,422.08l-0.462,13.8l0.033,0.023l6.628-9.495l1.476,1.03l-8.174,11.709l-1.706-1.19l0.442-13.667
		l-0.033-0.023l-6.56,9.397l-1.476-1.03l8.174-11.71L182.094,422.08z"/>
	<path fill="#33393D" d="M197.163,431.882l-2.447,15.135l-1.809-1.066l0.84-4.496l-5.203-3.068l-3.562,2.892l-1.671-0.985
		l12.043-9.477L197.163,431.882z M194.043,439.771l1.333-6.945l-0.034-0.021l-5.468,4.508L194.043,439.771z"/>
	<path fill="#33393D" d="M204.609,435.98l-5.688,11.333l6.757,3.392l-0.718,1.43l-8.455-4.243l6.406-12.763L204.609,435.98z"/>
</g>
<g>
	<path fill="#33393D" d="M361.909,436.646c1.289-0.641,2.431-0.793,3.422-0.46c0.992,0.333,1.785,1.098,2.378,2.292
		c0.593,1.193,0.725,2.29,0.394,3.287c-0.33,0.998-1.144,1.812-2.439,2.44l-3.904,1.939l2.598,5.23l-1.701,0.845l-6.353-12.789
		L361.909,436.646z M364.379,443.058c0.973-0.468,1.583-1.017,1.829-1.646c0.246-0.628,0.179-1.324-0.2-2.089
		c-0.38-0.765-0.893-1.235-1.54-1.413c-0.646-0.178-1.453-0.025-2.42,0.455l-3.332,1.654l2.331,4.693L364.379,443.058z"/>
	<path fill="#33393D" d="M373.267,430.348c1.17-0.695,2.254-0.951,3.254-0.77c0.999,0.182,1.795,0.771,2.388,1.77
		c0.442,0.745,0.661,1.499,0.656,2.262c-0.005,0.762-0.318,1.468-0.941,2.117l0.021,0.033c0.396-0.142,0.754-0.199,1.073-0.171
		c0.318,0.028,0.61,0.114,0.875,0.259c0.265,0.146,0.51,0.338,0.736,0.575s0.445,0.495,0.657,0.772
		c0.199,0.285,0.397,0.578,0.593,0.881c0.194,0.303,0.404,0.59,0.627,0.861c0.223,0.271,0.457,0.516,0.703,0.733
		s0.516,0.38,0.811,0.483l-1.823,1.083c-0.189-0.058-0.368-0.185-0.538-0.378s-0.34-0.422-0.512-0.686
		c-0.171-0.262-0.354-0.545-0.55-0.848s-0.41-0.586-0.645-0.85c-0.223-0.271-0.448-0.521-0.677-0.75s-0.478-0.398-0.746-0.511
		c-0.268-0.112-0.558-0.157-0.87-0.134c-0.312,0.021-0.669,0.152-1.07,0.391l-3.99,2.369l3.115,5.244l-1.634,0.971l-7.291-12.279
		L373.267,430.348z M376.919,435.715c0.31-0.262,0.545-0.553,0.704-0.871c0.159-0.32,0.232-0.666,0.221-1.039
		c-0.013-0.373-0.151-0.782-0.416-1.229c-0.368-0.619-0.84-1.021-1.415-1.207s-1.247-0.05-2.016,0.405l-4.058,2.41l2.542,4.282
		l3.405-2.022C376.265,436.219,376.609,435.977,376.919,435.715z"/>
	<path fill="#33393D" d="M386.955,421.242l0.914,1.312l-6.531,4.549l2.595,3.727l6.089-4.242l0.914,1.313l-6.088,4.241l2.823,4.053
		l6.581-4.584l0.914,1.313l-8.14,5.67l-8.162-11.718L386.955,421.242z"/>
	<path fill="#33393D" d="M395.299,417.09c-0.781,0.039-1.557,0.369-2.324,0.988c-0.312,0.25-0.593,0.529-0.844,0.834
		s-0.435,0.624-0.551,0.957c-0.116,0.334-0.146,0.68-0.09,1.036c0.057,0.357,0.231,0.718,0.524,1.081
		c0.276,0.342,0.602,0.538,0.976,0.588c0.374,0.049,0.783,0.006,1.229-0.131c0.446-0.138,0.918-0.334,1.414-0.588
		c0.497-0.256,1.008-0.509,1.533-0.761c0.524-0.252,1.056-0.479,1.595-0.683c0.538-0.203,1.072-0.32,1.603-0.354
		c0.529-0.032,1.042,0.05,1.538,0.251c0.495,0.199,0.965,0.574,1.408,1.125c0.477,0.592,0.752,1.204,0.826,1.838
		c0.075,0.634,0.011,1.25-0.19,1.85c-0.202,0.6-0.512,1.166-0.93,1.699c-0.417,0.534-0.881,1.006-1.389,1.416
		c-0.623,0.502-1.275,0.899-1.956,1.191c-0.681,0.293-1.358,0.449-2.034,0.472s-1.334-0.114-1.976-0.411
		c-0.642-0.296-1.234-0.781-1.778-1.457l1.401-1.129c0.377,0.467,0.792,0.796,1.245,0.986c0.454,0.191,0.916,0.276,1.388,0.256
		s0.946-0.138,1.425-0.352c0.479-0.215,0.925-0.489,1.34-0.824c0.332-0.268,0.642-0.568,0.929-0.902
		c0.287-0.335,0.505-0.686,0.653-1.055c0.149-0.367,0.201-0.748,0.158-1.142s-0.228-0.792-0.554-1.197
		c-0.31-0.384-0.662-0.614-1.058-0.689c-0.395-0.075-0.821-0.052-1.28,0.069c-0.458,0.121-0.938,0.307-1.439,0.557
		s-1.011,0.503-1.532,0.76c-0.521,0.258-1.046,0.492-1.576,0.706s-1.05,0.35-1.559,0.409c-0.509,0.059-1,0.002-1.475-0.173
		c-0.475-0.174-0.917-0.516-1.327-1.024c-0.451-0.561-0.729-1.137-0.831-1.731s-0.07-1.177,0.095-1.747
		c0.166-0.57,0.438-1.114,0.815-1.633c0.378-0.52,0.821-0.984,1.33-1.394c0.57-0.46,1.154-0.819,1.751-1.078s1.196-0.391,1.8-0.397
		c0.603-0.006,1.188,0.125,1.757,0.395s1.109,0.703,1.624,1.298l-1.401,1.13C396.835,417.396,396.081,417.051,395.299,417.09z"/>
	<path fill="#33393D" d="M405.445,405.375l1.09,1.172l-5.832,5.419l3.091,3.325l5.436-5.051l1.089,1.173l-5.436,5.051l3.362,3.618
		l5.876-5.459l1.089,1.172l-7.268,6.753l-9.72-10.461L405.445,405.375z"/>
	<path fill="#33393D" d="M408.185,402.547l13.604,2.363l0.027-0.029l-8.489-7.875l1.225-1.32l10.468,9.713l-1.414,1.524
		l-13.476-2.325l-0.027,0.029l8.401,7.795l-1.224,1.318l-10.469-9.712L408.185,402.547z"/>
	<path fill="#33393D" d="M423.187,388.162c-0.848,0.258-1.581,0.779-2.2,1.564c-0.528,0.67-0.854,1.342-0.979,2.017
		s-0.096,1.333,0.085,1.977c0.18,0.644,0.485,1.253,0.914,1.829c0.429,0.575,0.937,1.094,1.522,1.557
		c0.64,0.504,1.302,0.906,1.988,1.21c0.686,0.304,1.362,0.468,2.03,0.493c0.667,0.025,1.316-0.104,1.948-0.387
		c0.631-0.284,1.21-0.762,1.738-1.432c0.388-0.492,0.651-0.992,0.791-1.503c0.139-0.511,0.174-1.018,0.104-1.522
		c-0.069-0.504-0.241-0.992-0.516-1.463c-0.273-0.471-0.629-0.902-1.064-1.297l1.176-1.492c1.298,1.261,2.014,2.614,2.147,4.061
		c0.133,1.446-0.366,2.887-1.497,4.32c-0.685,0.87-1.433,1.512-2.242,1.926c-0.811,0.414-1.646,0.629-2.509,0.646
		s-1.733-0.148-2.614-0.495c-0.882-0.347-1.73-0.842-2.548-1.486c-0.816-0.644-1.492-1.363-2.028-2.159
		c-0.535-0.796-0.896-1.626-1.078-2.492c-0.184-0.866-0.167-1.753,0.048-2.661c0.216-0.908,0.661-1.793,1.338-2.651
		c0.463-0.587,0.979-1.079,1.549-1.479c0.569-0.399,1.167-0.684,1.793-0.853c0.625-0.169,1.273-0.21,1.943-0.124
		c0.67,0.088,1.336,0.324,1.999,0.711l-1.176,1.492C424.923,388.008,424.035,387.906,423.187,388.162z"/>
	<path fill="#33393D" d="M425.991,380.838l11.683,8.212l-1.093,1.554l-11.683-8.212L425.991,380.838z"/>
	<path fill="#33393D" d="M430.876,373.407l15.057,2.888l-1.119,1.777l-4.47-0.972l-3.219,5.11l2.786,3.646l-1.033,1.641
		l-9.121-12.314L430.876,373.407z M438.67,376.756l-6.903-1.535l-0.021,0.033l4.346,5.598L438.67,376.756z"/>
</g>
<g>
	<path fill="#33393D" d="M555.19,225.636L553.633,226l-1.815-7.75l-4.42,1.035l1.692,7.225l-1.559,0.365l-1.692-7.224l-4.81,1.126
		l1.829,7.809l-1.558,0.365l-2.263-9.658l13.904-3.257L555.19,225.636z"/>
	<path fill="#33393D" d="M555.348,237.332c0.368-0.806,0.463-1.7,0.284-2.684c-0.152-0.839-0.44-1.529-0.863-2.069
		c-0.424-0.54-0.937-0.955-1.538-1.245s-1.26-0.465-1.976-0.525c-0.716-0.06-1.44-0.023-2.175,0.111
		c-0.801,0.146-1.542,0.375-2.223,0.688c-0.683,0.313-1.253,0.712-1.714,1.196c-0.461,0.483-0.794,1.056-0.999,1.716
		c-0.206,0.661-0.231,1.411-0.079,2.25c0.112,0.616,0.312,1.146,0.604,1.587c0.29,0.442,0.647,0.804,1.071,1.086
		c0.424,0.282,0.903,0.476,1.438,0.583c0.534,0.106,1.094,0.126,1.678,0.061l0.34,1.869c-1.805,0.138-3.293-0.222-4.465-1.079
		s-1.922-2.185-2.248-3.982c-0.198-1.089-0.185-2.074,0.042-2.955c0.226-0.882,0.618-1.651,1.176-2.308
		c0.559-0.657,1.259-1.201,2.103-1.632c0.843-0.431,1.776-0.74,2.8-0.925c1.022-0.186,2.01-0.217,2.961-0.091
		c0.951,0.125,1.812,0.406,2.582,0.842s1.425,1.035,1.964,1.798c0.538,0.763,0.905,1.682,1.101,2.758
		c0.134,0.734,0.161,1.447,0.084,2.139c-0.078,0.692-0.26,1.328-0.548,1.909c-0.287,0.581-0.686,1.093-1.194,1.539
		c-0.508,0.445-1.127,0.787-1.855,1.028l-0.34-1.869C554.315,238.736,554.979,238.138,555.348,237.332z"/>
	<path fill="#33393D" d="M554.048,243.475c0.929,0.173,1.772,0.501,2.531,0.984s1.396,1.123,1.912,1.918
		c0.516,0.795,0.844,1.755,0.984,2.88c0.14,1.125,0.058,2.136-0.246,3.034c-0.305,0.898-0.766,1.674-1.383,2.329
		c-0.617,0.654-1.354,1.18-2.212,1.576s-1.77,0.654-2.735,0.774c-0.966,0.121-1.913,0.094-2.842-0.079
		c-0.929-0.173-1.772-0.501-2.531-0.984c-0.759-0.483-1.393-1.123-1.902-1.919c-0.509-0.797-0.833-1.757-0.974-2.882
		s-0.062-2.136,0.236-3.032c0.298-0.897,0.756-1.673,1.373-2.328c0.616-0.655,1.354-1.18,2.212-1.576
		c0.857-0.396,1.769-0.654,2.734-0.774S553.119,243.302,554.048,243.475z M549.362,245.823c-0.671,0.272-1.26,0.641-1.767,1.107
		c-0.506,0.466-0.889,1.031-1.148,1.695s-0.336,1.426-0.229,2.286c0.107,0.86,0.369,1.58,0.784,2.16
		c0.414,0.58,0.925,1.033,1.529,1.361c0.605,0.328,1.267,0.541,1.984,0.64c0.718,0.098,1.435,0.103,2.148,0.014
		c0.715-0.089,1.408-0.27,2.079-0.542c0.672-0.272,1.261-0.641,1.767-1.107c0.506-0.466,0.89-1.032,1.149-1.695
		c0.26-0.664,0.336-1.426,0.229-2.286s-0.368-1.58-0.783-2.16c-0.415-0.58-0.925-1.033-1.53-1.361s-1.267-0.541-1.984-0.64
		s-1.434-0.103-2.148-0.014C550.728,245.371,550.034,245.551,549.362,245.823z"/>
	<path fill="#33393D" d="M558.781,266.234c0.413-0.665,0.585-1.489,0.515-2.473c-0.028-0.399-0.097-0.789-0.204-1.168
		c-0.107-0.38-0.266-0.713-0.473-0.999c-0.208-0.286-0.475-0.507-0.8-0.665c-0.325-0.157-0.721-0.219-1.186-0.186
		c-0.439,0.031-0.786,0.187-1.04,0.465s-0.452,0.641-0.594,1.085c-0.143,0.444-0.25,0.943-0.324,1.497
		c-0.074,0.554-0.157,1.118-0.25,1.692c-0.092,0.575-0.209,1.141-0.349,1.699c-0.141,0.558-0.349,1.064-0.624,1.519
		c-0.274,0.454-0.636,0.828-1.082,1.12c-0.447,0.292-1.023,0.464-1.728,0.515c-0.759,0.054-1.419-0.069-1.981-0.369
		c-0.563-0.301-1.033-0.705-1.41-1.212c-0.378-0.508-0.666-1.085-0.866-1.733c-0.2-0.647-0.323-1.297-0.37-1.948
		c-0.058-0.798-0.012-1.56,0.137-2.286c0.148-0.726,0.406-1.373,0.773-1.94c0.367-0.567,0.855-1.03,1.465-1.388
		s1.346-0.567,2.211-0.629l0.128,1.795c-0.599,0.043-1.105,0.196-1.521,0.46c-0.416,0.263-0.75,0.595-1.002,0.994
		c-0.252,0.399-0.427,0.855-0.523,1.371s-0.126,1.039-0.088,1.57c0.03,0.426,0.102,0.852,0.212,1.278
		c0.11,0.426,0.274,0.806,0.492,1.138s0.5,0.592,0.849,0.781c0.347,0.189,0.78,0.265,1.299,0.228
		c0.492-0.035,0.882-0.194,1.17-0.475c0.287-0.281,0.512-0.645,0.673-1.091c0.162-0.446,0.283-0.946,0.364-1.5
		c0.081-0.554,0.164-1.118,0.25-1.692s0.192-1.14,0.319-1.697s0.312-1.062,0.554-1.513c0.241-0.452,0.569-0.823,0.982-1.113
		c0.414-0.29,0.946-0.458,1.599-0.505c0.718-0.051,1.35,0.05,1.896,0.305c0.546,0.255,1.006,0.613,1.38,1.074
		s0.666,0.995,0.877,1.602c0.21,0.606,0.339,1.235,0.386,1.887c0.052,0.731,0.014,1.416-0.114,2.054
		c-0.128,0.637-0.361,1.205-0.699,1.704c-0.339,0.499-0.781,0.905-1.327,1.218s-1.21,0.511-1.992,0.594l-0.129-1.795
		C557.652,267.32,558.367,266.898,558.781,266.234z"/>
	<path fill="#33393D" d="M561.118,274.25l-14.27,0.54l-0.072-1.899l14.271-0.539L561.118,274.25z"/>
	<path fill="#33393D" d="M559.366,284.817c0.449-0.641,0.666-1.454,0.65-2.441c-0.007-0.4-0.053-0.792-0.139-1.178
		c-0.087-0.385-0.226-0.727-0.417-1.023s-0.445-0.533-0.762-0.708s-0.708-0.259-1.174-0.251c-0.44,0.007-0.795,0.143-1.063,0.407
		c-0.27,0.264-0.487,0.614-0.653,1.051c-0.167,0.436-0.302,0.928-0.406,1.477s-0.219,1.107-0.343,1.676s-0.271,1.128-0.443,1.678
		c-0.171,0.549-0.406,1.042-0.706,1.482c-0.3,0.438-0.681,0.791-1.143,1.059c-0.463,0.268-1.047,0.406-1.754,0.418
		c-0.76,0.012-1.412-0.146-1.958-0.479c-0.545-0.33-0.992-0.76-1.341-1.289c-0.349-0.527-0.604-1.12-0.769-1.777
		s-0.252-1.313-0.262-1.966c-0.014-0.8,0.074-1.559,0.263-2.275s0.481-1.348,0.88-1.895c0.397-0.546,0.91-0.981,1.539-1.305
		c0.628-0.323,1.375-0.492,2.241-0.506l0.029,1.8c-0.6,0.01-1.114,0.135-1.544,0.375s-0.781,0.553-1.055,0.938
		c-0.273,0.384-0.474,0.831-0.599,1.34c-0.125,0.509-0.184,1.03-0.175,1.563c0.007,0.426,0.054,0.856,0.142,1.288
		c0.087,0.432,0.229,0.819,0.429,1.163c0.198,0.343,0.467,0.619,0.804,0.828c0.336,0.207,0.765,0.307,1.284,0.299
		c0.493-0.008,0.892-0.145,1.194-0.41c0.302-0.265,0.546-0.615,0.732-1.052s0.335-0.929,0.446-1.477
		c0.111-0.549,0.226-1.107,0.343-1.676c0.117-0.569,0.255-1.128,0.413-1.677c0.157-0.549,0.37-1.043,0.636-1.48
		c0.267-0.438,0.614-0.79,1.043-1.057c0.429-0.267,0.971-0.406,1.624-0.416c0.72-0.012,1.345,0.125,1.877,0.41
		c0.531,0.284,0.971,0.667,1.318,1.148s0.61,1.03,0.787,1.647s0.271,1.252,0.28,1.906c0.013,0.733-0.063,1.415-0.227,2.044
		s-0.428,1.184-0.793,1.663c-0.366,0.48-0.83,0.861-1.392,1.143c-0.562,0.283-1.236,0.443-2.022,0.484l-0.029-1.801
		C558.179,285.839,558.916,285.458,559.366,284.817z"/>
	<path fill="#33393D" d="M559.685,289.686l1.599,0.065l-0.466,11.41l-1.599-0.065l0.194-4.756l-12.67-0.517l0.078-1.898
		l12.669,0.517L559.685,289.686z"/>
	<path fill="#33393D" d="M559.826,313.045l-1.594-0.136l0.674-7.932l-4.523-0.384l-0.629,7.393l-1.594-0.136l0.629-7.393
		l-4.923-0.419l-0.679,7.991l-1.595-0.136l0.841-9.884l14.229,1.21L559.826,313.045z"/>
	<path fill="#33393D" d="M559.178,318.587l-12.511,2.779l11.25,6.152l-0.363,2.574l-14.14-1.995l0.252-1.782l11.763,1.66l0.006-0.04
		l-11.14-6.076l0.226-1.604l12.387-2.756l0.006-0.039l-11.764-1.661l0.252-1.782l14.14,1.996L559.178,318.587z"/>
	<path fill="#33393D" d="M555.682,339.688l-15.097,2.671l0.412-2.06l4.522-0.686l1.185-5.923l-3.903-2.413l0.381-1.901l12.912,8.253
		L555.682,339.688z M547.206,339.338l6.997-1.027l0.008-0.039l-6.056-3.679L547.206,339.338z"/>
</g>
<g>
	<path fill="#FFFFFF" d="M506.876,191.74l-14.119,5.672l3.383,8.418l-1.782,0.716l-4.231-10.534l15.9-6.388L506.876,191.74z"/>
	<path fill="#FFFFFF" d="M497.46,215.812l1.866-0.625l-0.016-0.045c-0.865-0.166-1.575-0.51-2.13-1.033s-0.977-1.217-1.267-2.082
		c-0.259-0.774-0.373-1.453-0.341-2.037c0.032-0.585,0.185-1.1,0.457-1.545c0.272-0.445,0.649-0.821,1.13-1.125
		c0.48-0.305,1.039-0.563,1.676-0.776l7.738-2.591l0.647,1.935l-7.966,2.667c-0.728,0.244-1.233,0.649-1.516,1.217
		c-0.283,0.566-0.3,1.222-0.051,1.965c0.198,0.592,0.461,1.073,0.788,1.445c0.326,0.372,0.705,0.646,1.136,0.822
		c0.43,0.177,0.893,0.262,1.389,0.256c0.496-0.006,1.009-0.097,1.54-0.275l6.646-2.225l0.647,1.935l-11.766,3.939L497.46,215.812z"
		/>
	<path fill="#FFFFFF" d="M497.928,230.224c-1.215-0.634-2.081-1.909-2.597-3.824c-0.15-0.556-0.241-1.14-0.274-1.753
		c-0.032-0.613,0.027-1.192,0.178-1.738c0.151-0.546,0.409-1.034,0.774-1.464c0.364-0.43,0.867-0.748,1.508-0.953l0.53,1.97
		c-0.351,0.111-0.622,0.304-0.812,0.58c-0.191,0.275-0.323,0.584-0.396,0.927c-0.073,0.343-0.097,0.701-0.07,1.075
		c0.025,0.374,0.083,0.723,0.17,1.048c0.175,0.649,0.436,1.167,0.779,1.555c0.346,0.387,0.754,0.675,1.228,0.862
		c0.473,0.187,1.005,0.271,1.597,0.253s1.22-0.117,1.884-0.296l0.788-0.212l-0.013-0.046c-0.833-0.14-1.517-0.507-2.049-1.101
		c-0.533-0.594-0.904-1.277-1.112-2.049c-0.241-0.896-0.289-1.72-0.145-2.472c0.146-0.751,0.433-1.425,0.86-2.021
		c0.427-0.596,0.978-1.105,1.651-1.527c0.673-0.422,1.419-0.743,2.238-0.964c0.71-0.191,1.465-0.295,2.265-0.312
		c0.799-0.017,1.562,0.109,2.289,0.377c0.727,0.268,1.383,0.704,1.969,1.309c0.585,0.604,1.018,1.424,1.297,2.459
		c0.204,0.757,0.225,1.497,0.063,2.22c-0.161,0.723-0.526,1.351-1.095,1.886l0.006,0.023l1.715-0.462l0.5,1.854l-10.961,2.955
		C500.731,230.91,499.143,230.857,497.928,230.224z M502.638,226.257c0.393,0.383,0.848,0.654,1.362,0.813
		c0.516,0.159,1.068,0.229,1.66,0.211s1.166-0.103,1.722-0.252c0.525-0.142,1.026-0.343,1.503-0.604
		c0.477-0.261,0.883-0.582,1.219-0.962c0.337-0.381,0.57-0.821,0.701-1.32c0.13-0.5,0.112-1.058-0.054-1.676
		c-0.171-0.634-0.437-1.142-0.797-1.525c-0.36-0.384-0.78-0.664-1.259-0.841c-0.479-0.178-0.998-0.262-1.559-0.251
		c-0.561,0.01-1.127,0.092-1.698,0.247c-0.541,0.146-1.067,0.345-1.578,0.599c-0.513,0.254-0.952,0.571-1.322,0.953
		c-0.369,0.381-0.631,0.825-0.784,1.33c-0.154,0.505-0.144,1.083,0.031,1.731S502.244,225.875,502.638,226.257z"/>
	<path fill="#FFFFFF" d="M504.598,244.17c-0.274-0.303-0.476-0.759-0.603-1.37c-0.107-0.517-0.048-0.958,0.179-1.324
		c0.227-0.365,0.669-0.616,1.327-0.753c-0.772-0.412-1.379-0.952-1.819-1.621c-0.44-0.668-0.749-1.425-0.925-2.271
		c-0.113-0.548-0.158-1.082-0.136-1.602s0.13-0.987,0.322-1.403c0.191-0.416,0.48-0.773,0.867-1.074s0.887-0.515,1.497-0.642
		c0.689-0.143,1.277-0.142,1.766,0.001c0.486,0.145,0.907,0.379,1.262,0.707c0.354,0.327,0.652,0.723,0.896,1.187
		s0.466,0.945,0.667,1.443c0.223,0.525,0.413,1.029,0.57,1.511c0.157,0.482,0.325,0.901,0.506,1.256
		c0.18,0.354,0.39,0.621,0.632,0.8c0.241,0.179,0.55,0.229,0.926,0.151c0.438-0.091,0.773-0.246,1.006-0.466
		s0.393-0.474,0.479-0.761c0.088-0.288,0.121-0.597,0.102-0.928s-0.062-0.653-0.127-0.966c-0.175-0.846-0.482-1.518-0.92-2.015
		c-0.438-0.497-1.108-0.677-2.012-0.539l-0.414-1.998c0.759-0.125,1.426-0.1,2.001,0.075c0.576,0.175,1.072,0.464,1.491,0.867
		c0.419,0.404,0.761,0.892,1.027,1.466c0.266,0.573,0.471,1.205,0.613,1.895c0.114,0.548,0.188,1.101,0.222,1.658
		c0.033,0.557-0.025,1.08-0.177,1.568s-0.418,0.912-0.801,1.269c-0.382,0.357-0.925,0.609-1.628,0.754l-6.238,1.294
		c-0.469,0.097-0.807,0.196-1.015,0.296c-0.207,0.1-0.278,0.307-0.214,0.621c0.036,0.172,0.109,0.369,0.221,0.591L504.598,244.17z
		 M510.152,239.635c-0.239-0.212-0.443-0.513-0.613-0.902c-0.171-0.39-0.329-0.802-0.477-1.237s-0.303-0.873-0.468-1.312
		c-0.164-0.44-0.361-0.824-0.592-1.151c-0.23-0.329-0.514-0.576-0.85-0.743c-0.335-0.167-0.753-0.199-1.251-0.096
		c-0.328,0.068-0.591,0.191-0.789,0.372s-0.346,0.391-0.442,0.631c-0.097,0.24-0.146,0.508-0.15,0.803s0.026,0.599,0.092,0.912
		c0.137,0.658,0.343,1.204,0.619,1.636c0.277,0.433,0.583,0.77,0.917,1.011c0.335,0.241,0.677,0.399,1.025,0.474
		s0.664,0.083,0.944,0.024L510.152,239.635z"/>
	<path fill="#FFFFFF" d="M517.321,245.75l-2.583,0.413l0.008,0.047c1.073,0.331,1.904,0.814,2.492,1.449
		c0.587,0.635,0.952,1.5,1.095,2.595l-2.133,0.341c-0.129-0.806-0.349-1.476-0.661-2.009c-0.312-0.534-0.709-0.94-1.191-1.219
		c-0.482-0.28-1.04-0.45-1.674-0.51c-0.633-0.061-1.345-0.028-2.135,0.098l-5.451,0.871l-0.321-2.014l12.252-1.958L517.321,245.75z"
		/>
	<path fill="#FFFFFF" d="M507.527,269.084l1.674-0.135l-0.004-0.048c-0.713-0.279-1.25-0.766-1.61-1.459
		c-0.361-0.693-0.577-1.47-0.646-2.332c-0.077-0.957,0.03-1.804,0.324-2.542c0.293-0.738,0.716-1.366,1.268-1.884
		s1.209-0.929,1.971-1.231c0.763-0.303,1.582-0.489,2.459-0.56c0.877-0.071,1.716-0.023,2.517,0.145
		c0.8,0.168,1.51,0.464,2.13,0.887c0.62,0.423,1.131,0.976,1.531,1.658c0.4,0.682,0.639,1.493,0.715,2.435
		c0.025,0.319,0.021,0.664-0.013,1.036s-0.112,0.748-0.233,1.126c-0.122,0.379-0.294,0.742-0.515,1.089
		c-0.221,0.347-0.505,0.646-0.854,0.9l0.004,0.048l6.363-0.515l0.164,2.033l-17.08,1.383L507.527,269.084z M511.325,261.421
		c-0.538,0.196-1.01,0.467-1.415,0.812c-0.405,0.346-0.717,0.772-0.932,1.279c-0.217,0.507-0.298,1.087-0.245,1.742
		c0.056,0.686,0.238,1.257,0.549,1.713c0.31,0.457,0.695,0.818,1.159,1.086c0.463,0.267,0.979,0.446,1.548,0.537
		s1.142,0.112,1.715,0.066c0.606-0.049,1.187-0.168,1.741-0.357c0.555-0.189,1.034-0.457,1.439-0.803
		c0.406-0.346,0.72-0.777,0.943-1.292c0.223-0.516,0.307-1.125,0.249-1.826c-0.055-0.686-0.238-1.257-0.548-1.713
		s-0.7-0.81-1.169-1.061c-0.471-0.251-0.997-0.417-1.582-0.498c-0.584-0.082-1.18-0.097-1.785-0.048
		C512.419,261.104,511.863,261.225,511.325,261.421z"/>
	<path fill="#FFFFFF" d="M508.807,282.797c-0.725-0.913-1.102-2.073-1.133-3.48c-0.021-0.992,0.119-1.855,0.423-2.59
		c0.304-0.735,0.738-1.357,1.304-1.865c0.565-0.509,1.244-0.896,2.039-1.161c0.794-0.266,1.663-0.425,2.606-0.478
		c0.943-0.021,1.811,0.104,2.601,0.375c0.79,0.271,1.479,0.66,2.066,1.167c0.587,0.507,1.048,1.113,1.384,1.818
		s0.513,1.481,0.531,2.329c0.024,1.104-0.184,2.024-0.623,2.762c-0.44,0.738-1.008,1.334-1.701,1.79
		c-0.694,0.455-1.456,0.776-2.283,0.962c-0.829,0.186-1.619,0.271-2.371,0.256l-0.204-9.286c-0.545-0.004-1.059,0.071-1.544,0.226
		c-0.484,0.155-0.911,0.396-1.28,0.724s-0.66,0.743-0.873,1.244c-0.213,0.5-0.312,1.087-0.297,1.759
		c0.019,0.864,0.234,1.567,0.646,2.11c0.411,0.543,1.027,0.894,1.848,1.052l0.044,2.016
		C510.592,284.286,509.53,283.709,508.807,282.797z M516.762,282.13c0.428-0.194,0.794-0.45,1.1-0.769
		c0.305-0.319,0.545-0.692,0.72-1.12c0.174-0.428,0.256-0.898,0.245-1.41c-0.012-0.528-0.114-1.002-0.308-1.421
		c-0.193-0.42-0.453-0.778-0.779-1.075c-0.327-0.297-0.704-0.529-1.132-0.695c-0.428-0.167-0.882-0.261-1.362-0.282l0.156,7.126
		C515.881,282.441,516.334,282.323,516.762,282.13z"/>
	<path fill="#FFFFFF" d="M523.141,292.721l1.916,0.123l-0.881,13.676l-1.916-0.123l0.367-5.7l-15.185-0.978l0.146-2.275
		l15.185,0.978L523.141,292.721z"/>
	<path fill="#FFFFFF" d="M518.979,309.976l-2.601-0.291l-0.005,0.048c0.946,0.604,1.618,1.292,2.015,2.062
		c0.397,0.769,0.518,1.7,0.363,2.793l-2.146-0.24c0.091-0.811,0.057-1.515-0.102-2.112s-0.433-1.096-0.822-1.493
		c-0.391-0.398-0.883-0.711-1.477-0.938c-0.595-0.228-1.29-0.386-2.085-0.475l-5.485-0.615l0.228-2.027l12.331,1.383
		L518.979,309.976z"/>
	<path fill="#FFFFFF" d="M504.303,325.354c-0.15-0.381-0.177-0.879-0.079-1.495c0.083-0.521,0.295-0.913,0.636-1.175
		s0.844-0.34,1.508-0.234c-0.576-0.659-0.952-1.378-1.128-2.159s-0.196-1.599-0.061-2.452c0.088-0.554,0.234-1.068,0.439-1.546
		s0.472-0.877,0.798-1.198s0.724-0.554,1.192-0.697c0.468-0.145,1.011-0.168,1.627-0.07c0.694,0.11,1.245,0.319,1.649,0.626
		c0.405,0.308,0.715,0.677,0.931,1.107c0.215,0.431,0.354,0.907,0.417,1.427c0.063,0.521,0.102,1.049,0.113,1.586
		c0.022,0.57,0.022,1.109-0.001,1.615c-0.023,0.507-0.015,0.958,0.028,1.354c0.042,0.396,0.145,0.72,0.308,0.973
		c0.162,0.252,0.434,0.408,0.812,0.469c0.442,0.07,0.811,0.043,1.106-0.08c0.294-0.123,0.534-0.304,0.718-0.542
		s0.324-0.516,0.423-0.832c0.1-0.316,0.174-0.633,0.224-0.948c0.136-0.854,0.086-1.591-0.147-2.211s-0.797-1.025-1.69-1.216
		l0.319-2.015c0.754,0.151,1.369,0.411,1.845,0.778c0.477,0.367,0.839,0.813,1.088,1.339s0.396,1.104,0.441,1.735
		c0.046,0.631,0.014,1.294-0.097,1.989c-0.088,0.553-0.214,1.096-0.38,1.628c-0.165,0.533-0.405,1.001-0.72,1.405
		c-0.314,0.403-0.714,0.704-1.198,0.903c-0.483,0.198-1.081,0.241-1.79,0.129l-6.292-0.998c-0.473-0.075-0.824-0.103-1.054-0.082
		s-0.369,0.188-0.419,0.505c-0.028,0.173-0.029,0.384-0.003,0.631L504.303,325.354z M511.103,323.08
		c-0.148-0.283-0.233-0.637-0.255-1.062s-0.023-0.866-0.007-1.325c0.016-0.459,0.025-0.924,0.027-1.394s-0.047-0.898-0.146-1.286
		c-0.1-0.389-0.276-0.721-0.531-0.996s-0.634-0.452-1.137-0.532c-0.33-0.053-0.62-0.029-0.869,0.068
		c-0.25,0.098-0.462,0.243-0.638,0.434c-0.175,0.191-0.316,0.424-0.425,0.698s-0.187,0.569-0.237,0.886
		c-0.105,0.664-0.104,1.247,0.001,1.75c0.105,0.502,0.271,0.926,0.499,1.27c0.229,0.344,0.492,0.612,0.791,0.806
		c0.3,0.193,0.592,0.312,0.875,0.357L511.103,323.08z"/>
	<path fill="#FFFFFF" d="M520.208,332.741l-6.258-1.38l-0.011,0.047c0.6,0.477,0.975,1.1,1.124,1.87s0.131,1.577-0.055,2.421
		c-0.207,0.938-0.559,1.716-1.056,2.335c-0.497,0.62-1.09,1.096-1.777,1.427c-0.688,0.332-1.44,0.53-2.257,0.597
		c-0.817,0.065-1.656,0.003-2.516-0.187s-1.646-0.482-2.362-0.878s-1.308-0.887-1.776-1.473c-0.469-0.587-0.79-1.265-0.965-2.031
		c-0.175-0.769-0.16-1.613,0.043-2.535c0.065-0.297,0.17-0.622,0.313-0.975c0.144-0.354,0.325-0.694,0.545-1.022
		c0.22-0.329,0.486-0.627,0.799-0.894s0.673-0.47,1.081-0.609l0.01-0.047l-1.617-0.356l0.439-1.992l16.734,3.691L520.208,332.741z
		 M509.711,337.935c0.571-0.029,1.103-0.15,1.591-0.361c0.489-0.212,0.911-0.528,1.267-0.95c0.354-0.422,0.604-0.952,0.744-1.593
		c0.148-0.672,0.142-1.271-0.021-1.799s-0.426-0.987-0.79-1.378c-0.364-0.393-0.805-0.715-1.322-0.968
		c-0.518-0.254-1.058-0.442-1.62-0.566c-0.594-0.131-1.184-0.188-1.77-0.169c-0.585,0.019-1.123,0.133-1.611,0.345
		c-0.489,0.212-0.916,0.531-1.281,0.959c-0.364,0.427-0.622,0.984-0.774,1.672c-0.151,0.688-0.146,1.291,0.019,1.811
		s0.434,0.968,0.81,1.346c0.375,0.378,0.83,0.691,1.365,0.94s1.099,0.439,1.693,0.57
		C508.572,337.917,509.139,337.964,509.711,337.935z"/>
	<path fill="#FFFFFF" d="M497.856,351.203c-0.104-0.396-0.07-0.893,0.101-1.493c0.144-0.508,0.401-0.871,0.771-1.091
		c0.37-0.219,0.878-0.236,1.524-0.053c-0.493-0.723-0.781-1.482-0.862-2.278c-0.081-0.797-0.004-1.61,0.232-2.441
		c0.153-0.539,0.36-1.033,0.621-1.483c0.261-0.449,0.572-0.814,0.935-1.094c0.362-0.28,0.784-0.464,1.267-0.551
		c0.482-0.088,1.024-0.046,1.624,0.125c0.678,0.192,1.198,0.465,1.564,0.818c0.364,0.354,0.629,0.757,0.791,1.21
		c0.162,0.454,0.243,0.943,0.244,1.467c0.001,0.524-0.025,1.054-0.077,1.588c-0.045,0.569-0.11,1.104-0.193,1.604
		c-0.084,0.5-0.129,0.949-0.134,1.348c-0.005,0.397,0.059,0.731,0.189,1.002c0.131,0.27,0.382,0.457,0.751,0.562
		c0.431,0.122,0.8,0.14,1.107,0.053s0.566-0.238,0.777-0.453c0.211-0.214,0.384-0.473,0.52-0.775
		c0.137-0.303,0.248-0.607,0.335-0.915c0.236-0.831,0.275-1.568,0.118-2.212c-0.158-0.645-0.67-1.113-1.534-1.409l0.559-1.962
		c0.729,0.24,1.31,0.571,1.738,0.993c0.429,0.421,0.735,0.907,0.92,1.459c0.185,0.551,0.262,1.143,0.231,1.774
		c-0.029,0.632-0.141,1.286-0.333,1.964c-0.153,0.539-0.344,1.062-0.571,1.571c-0.229,0.51-0.521,0.945-0.883,1.31
		c-0.36,0.362-0.793,0.614-1.297,0.754c-0.505,0.139-1.103,0.11-1.793-0.086l-6.128-1.741c-0.461-0.131-0.806-0.2-1.036-0.207
		c-0.23-0.008-0.39,0.143-0.477,0.45c-0.049,0.17-0.075,0.378-0.079,0.627L497.856,351.203z M504.88,349.757
		c-0.114-0.299-0.156-0.66-0.127-1.084c0.029-0.425,0.08-0.863,0.151-1.317c0.07-0.454,0.135-0.914,0.193-1.38
		c0.058-0.466,0.061-0.897,0.008-1.295c-0.052-0.397-0.188-0.748-0.408-1.052c-0.221-0.304-0.575-0.525-1.065-0.664
		c-0.321-0.092-0.611-0.104-0.871-0.036s-0.487,0.187-0.685,0.354c-0.196,0.169-0.365,0.383-0.505,0.643
		c-0.141,0.26-0.254,0.543-0.341,0.852c-0.185,0.646-0.254,1.225-0.209,1.736c0.045,0.513,0.16,0.952,0.345,1.321
		c0.186,0.368,0.415,0.667,0.689,0.895s0.55,0.381,0.825,0.459L504.88,349.757z"/>
	<path fill="#FFFFFF" d="M493.019,352.845c-0.312-0.667-0.325-1.433-0.041-2.3c0.115-0.35,0.253-0.666,0.413-0.95l1.664,0.546
		c-0.039,0.071-0.072,0.132-0.098,0.183c-0.024,0.051-0.047,0.106-0.067,0.167l-0.135,0.411c-0.14,0.425-0.116,0.753,0.069,0.982
		c0.187,0.229,0.583,0.443,1.19,0.644l12.953,4.249l-0.636,1.938l-13.272-4.354C494.011,354.017,493.33,353.511,493.019,352.845z
		 M511.089,357.473l2.371,0.778l-0.636,1.938l-2.372-0.777L511.089,357.473z"/>
	<path fill="#FFFFFF" d="M503.922,360.521c0.651,0.518,1.16,1.119,1.527,1.804c0.366,0.685,0.575,1.438,0.625,2.261
		c0.05,0.821-0.097,1.689-0.439,2.604c-0.349,0.929-0.812,1.682-1.388,2.261c-0.576,0.578-1.228,1.004-1.954,1.278
		c-0.727,0.273-1.506,0.392-2.337,0.353c-0.832-0.039-1.675-0.219-2.528-0.539s-1.603-0.739-2.246-1.254
		c-0.645-0.516-1.149-1.115-1.517-1.8c-0.366-0.685-0.572-1.433-0.618-2.245c-0.045-0.812,0.106-1.682,0.455-2.61
		c0.344-0.914,0.801-1.665,1.372-2.254s1.221-1.02,1.947-1.294s1.502-0.393,2.326-0.356c0.823,0.035,1.662,0.214,2.517,0.535
		C502.518,359.583,503.271,360.002,503.922,360.521z M498.923,360.86c-0.617-0.018-1.171,0.068-1.662,0.261
		c-0.49,0.191-0.916,0.472-1.276,0.841c-0.361,0.368-0.634,0.8-0.819,1.294c-0.186,0.495-0.265,0.999-0.235,1.515
		c0.028,0.515,0.164,1.006,0.407,1.473c0.243,0.468,0.604,0.897,1.08,1.29s1.066,0.722,1.771,0.985
		c0.704,0.265,1.364,0.406,1.981,0.424c0.617,0.019,1.175-0.067,1.673-0.256c0.498-0.189,0.928-0.468,1.288-0.837
		c0.36-0.368,0.634-0.8,0.819-1.294s0.265-0.999,0.235-1.514c-0.028-0.516-0.168-1.009-0.419-1.479s-0.614-0.901-1.091-1.294
		s-1.066-0.721-1.771-0.985S499.54,360.878,498.923,360.86z"/>
</g>
<g>
	<path fill="#FFFFFF" d="M57.617,367.828l1.782-0.715l3.338,8.332l5.058-2.025l-2.928-7.308l1.782-0.714l2.928,7.307l7.285-2.918
		l0.848,2.116l-15.906,6.373L57.617,367.828z"/>
	<path fill="#FFFFFF" d="M69.365,349.21c0.309,0.269,0.562,0.698,0.759,1.29c0.168,0.501,0.16,0.946-0.021,1.336
		s-0.592,0.691-1.229,0.904c0.815,0.318,1.48,0.783,1.997,1.395c0.516,0.612,0.911,1.328,1.185,2.147
		c0.178,0.531,0.285,1.056,0.323,1.575c0.039,0.518-0.013,0.995-0.154,1.43c-0.142,0.436-0.387,0.825-0.735,1.17
		c-0.35,0.344-0.819,0.615-1.412,0.812c-0.667,0.223-1.252,0.291-1.753,0.205c-0.5-0.085-0.945-0.27-1.336-0.553
		c-0.39-0.283-0.732-0.641-1.028-1.073c-0.297-0.433-0.574-0.884-0.832-1.354c-0.283-0.496-0.531-0.974-0.744-1.434
		c-0.213-0.461-0.43-0.856-0.649-1.188c-0.221-0.332-0.461-0.572-0.722-0.721c-0.261-0.149-0.573-0.163-0.938-0.041
		c-0.425,0.141-0.739,0.335-0.944,0.58c-0.205,0.246-0.334,0.517-0.387,0.812c-0.053,0.297-0.051,0.607,0.008,0.934
		s0.139,0.642,0.239,0.945c0.274,0.819,0.658,1.45,1.151,1.893s1.18,0.542,2.061,0.299l0.646,1.936
		c-0.738,0.213-1.403,0.266-1.995,0.16c-0.593-0.106-1.12-0.335-1.583-0.687s-0.86-0.796-1.192-1.335s-0.609-1.142-0.832-1.81
		c-0.177-0.531-0.315-1.071-0.414-1.62c-0.1-0.549-0.103-1.075-0.01-1.578c0.093-0.504,0.309-0.955,0.646-1.354
		s0.848-0.714,1.528-0.94l6.043-2.018c0.454-0.152,0.778-0.289,0.973-0.414c0.194-0.123,0.24-0.337,0.14-0.641
		c-0.056-0.167-0.152-0.354-0.289-0.562L69.365,349.21z M64.381,354.365c0.263,0.184,0.501,0.457,0.716,0.824
		s0.421,0.758,0.618,1.173s0.403,0.831,0.618,1.249c0.216,0.417,0.457,0.775,0.724,1.073c0.268,0.3,0.578,0.512,0.931,0.638
		c0.354,0.127,0.771,0.109,1.255-0.051c0.316-0.106,0.563-0.26,0.739-0.463c0.176-0.201,0.298-0.428,0.365-0.678
		s0.086-0.522,0.055-0.816c-0.03-0.293-0.097-0.591-0.198-0.895c-0.213-0.638-0.482-1.154-0.808-1.553
		c-0.325-0.396-0.669-0.695-1.029-0.896s-0.719-0.317-1.073-0.351c-0.355-0.033-0.669-0.004-0.941,0.087L64.381,354.365z"/>
	<path fill="#FFFFFF" d="M57.128,343.129c-0.282,0.607-0.311,1.328-0.084,2.162c0.193,0.71,0.486,1.27,0.879,1.676
		c0.393,0.408,0.844,0.695,1.354,0.863s1.063,0.237,1.66,0.208c0.598-0.03,1.197-0.126,1.8-0.29c0.556-0.15,1.078-0.363,1.567-0.638
		c0.489-0.273,0.9-0.605,1.234-0.994c0.334-0.39,0.563-0.841,0.688-1.356c0.125-0.515,0.104-1.08-0.063-1.699
		c-0.265-0.973-0.727-1.663-1.385-2.072c-0.658-0.41-1.468-0.551-2.428-0.423l-0.547-2.015c1.541-0.187,2.833,0.055,3.877,0.725
		c1.045,0.67,1.774,1.769,2.189,3.297c0.248,0.911,0.32,1.758,0.218,2.54s-0.359,1.481-0.772,2.101
		c-0.412,0.617-0.96,1.147-1.645,1.59c-0.684,0.443-1.473,0.786-2.368,1.029c-0.896,0.244-1.765,0.355-2.607,0.336
		s-1.617-0.186-2.325-0.5c-0.706-0.313-1.322-0.78-1.848-1.4c-0.524-0.619-0.915-1.4-1.171-2.343
		c-0.185-0.679-0.277-1.339-0.276-1.978c0.001-0.638,0.109-1.23,0.325-1.779c0.216-0.547,0.542-1.038,0.979-1.473
		c0.438-0.434,1.001-0.785,1.69-1.056l0.554,2.038C57.91,342.038,57.411,342.521,57.128,343.129z"/>
	<path fill="#FFFFFF" d="M52.484,332.842l1.757-0.394l0.54,2.412l7.518-1.683c0.234-0.053,0.417-0.113,0.549-0.185
		c0.132-0.07,0.225-0.169,0.278-0.296s0.07-0.29,0.05-0.49c-0.021-0.201-0.065-0.457-0.135-0.77l-0.205-0.914l1.757-0.393
		l0.341,1.522c0.115,0.515,0.179,0.964,0.19,1.347c0.013,0.383-0.05,0.709-0.187,0.977c-0.137,0.269-0.364,0.496-0.684,0.682
		c-0.319,0.187-0.76,0.342-1.322,0.469l-7.705,1.725l0.461,2.061l-1.756,0.393l-0.462-2.061l-3.63,0.812l-0.445-1.99l3.63-0.812
		L52.484,332.842z"/>
	<path fill="#FFFFFF" d="M55.57,329.906c-0.824-0.115-1.568-0.375-2.231-0.778c-0.664-0.403-1.226-0.946-1.687-1.63
		c-0.461-0.683-0.775-1.505-0.943-2.467c-0.171-0.977-0.155-1.86,0.048-2.651c0.203-0.79,0.548-1.488,1.034-2.094
		c0.487-0.604,1.099-1.102,1.835-1.49s1.553-0.661,2.451-0.819c0.898-0.156,1.757-0.177,2.572-0.061
		c0.816,0.117,1.557,0.378,2.22,0.781c0.664,0.404,1.222,0.944,1.673,1.621c0.451,0.676,0.763,1.502,0.934,2.479
		c0.168,0.962,0.155,1.841-0.038,2.638c-0.193,0.798-0.533,1.499-1.021,2.104c-0.487,0.605-1.095,1.102-1.823,1.488
		c-0.728,0.388-1.541,0.66-2.439,0.817S56.395,330.022,55.57,329.906z M59.704,327.076c0.541-0.298,0.974-0.654,1.3-1.068
		c0.325-0.414,0.55-0.871,0.673-1.373c0.124-0.5,0.14-1.011,0.049-1.531c-0.091-0.52-0.279-0.994-0.565-1.424
		c-0.286-0.428-0.652-0.783-1.1-1.062c-0.447-0.279-0.975-0.467-1.585-0.563c-0.609-0.096-1.285-0.08-2.025,0.05
		c-0.741,0.13-1.382,0.343-1.923,0.642c-0.54,0.297-0.978,0.654-1.312,1.069c-0.333,0.416-0.562,0.874-0.685,1.375
		s-0.14,1.011-0.049,1.531s0.279,0.995,0.565,1.424s0.657,0.782,1.111,1.06c0.455,0.278,0.987,0.465,1.597,0.562
		c0.61,0.097,1.285,0.08,2.026-0.05C58.522,327.588,59.163,327.374,59.704,327.076z"/>
	<path fill="#FFFFFF" d="M49.391,314.435l2.596-0.327l-0.006-0.048c-1.062-0.366-1.876-0.876-2.442-1.53s-0.902-1.531-1.01-2.631
		l2.144-0.27c0.102,0.809,0.301,1.486,0.595,2.029s0.678,0.963,1.15,1.258s1.024,0.484,1.655,0.564
		c0.632,0.082,1.344,0.073,2.138-0.027l5.477-0.69l0.255,2.024l-12.311,1.553L49.391,314.435z"/>
	<path fill="#FFFFFF" d="M59.476,298.283c0.776,0.869,1.22,2.006,1.332,3.408c0.08,0.99-0.012,1.859-0.272,2.611
		c-0.261,0.751-0.658,1.396-1.192,1.937c-0.535,0.54-1.19,0.966-1.969,1.277c-0.777,0.312-1.636,0.521-2.574,0.628
		c-0.94,0.074-1.813,0-2.618-0.225s-1.515-0.572-2.13-1.045c-0.616-0.473-1.111-1.051-1.487-1.734
		c-0.376-0.685-0.598-1.449-0.665-2.295c-0.089-1.1,0.065-2.031,0.462-2.793c0.396-0.763,0.929-1.391,1.595-1.886
		c0.667-0.495,1.408-0.859,2.224-1.093c0.816-0.234,1.601-0.365,2.353-0.394l0.741,9.259c0.544-0.027,1.053-0.133,1.527-0.314
		c0.476-0.184,0.888-0.449,1.236-0.798c0.35-0.349,0.616-0.78,0.8-1.292s0.249-1.104,0.195-1.773
		c-0.069-0.861-0.325-1.551-0.768-2.069s-1.078-0.832-1.905-0.942l-0.161-2.01C57.607,296.9,58.7,297.415,59.476,298.283z
		 M51.572,299.41c-0.416,0.218-0.767,0.494-1.053,0.83s-0.504,0.723-0.653,1.16s-0.204,0.911-0.163,1.422
		c0.042,0.525,0.172,0.993,0.389,1.4c0.218,0.408,0.498,0.752,0.841,1.029c0.344,0.277,0.733,0.486,1.17,0.628
		s0.896,0.21,1.377,0.203l-0.569-7.105C52.435,299.048,51.988,299.191,51.572,299.41z"/>
	<path fill="#FFFFFF" d="M57.234,292.872c0.307-0.2,0.549-0.458,0.724-0.774c0.177-0.317,0.299-0.672,0.369-1.066
		c0.069-0.395,0.099-0.799,0.088-1.215c-0.008-0.32-0.041-0.654-0.098-1.006c-0.058-0.35-0.153-0.672-0.29-0.965
		c-0.135-0.293-0.329-0.531-0.582-0.717s-0.571-0.273-0.955-0.264c-0.528,0.014-0.923,0.225-1.185,0.631
		c-0.262,0.408-0.469,0.913-0.621,1.518c-0.152,0.604-0.287,1.26-0.404,1.967s-0.293,1.364-0.525,1.971
		c-0.231,0.605-0.566,1.115-1.004,1.526s-1.057,0.628-1.856,0.648c-0.623,0.017-1.163-0.11-1.618-0.378s-0.828-0.619-1.12-1.051
		c-0.291-0.434-0.512-0.924-0.662-1.472s-0.232-1.095-0.247-1.638c-0.018-0.704,0.025-1.354,0.13-1.949
		c0.104-0.594,0.299-1.123,0.583-1.587s0.674-0.838,1.171-1.123c0.497-0.285,1.12-0.461,1.871-0.529l0.053,2.04
		c-0.398,0.043-0.729,0.154-0.987,0.338c-0.26,0.183-0.466,0.412-0.618,0.688c-0.152,0.277-0.262,0.58-0.324,0.909
		c-0.063,0.33-0.091,0.663-0.082,0.999c0.008,0.304,0.039,0.611,0.096,0.922c0.056,0.311,0.147,0.592,0.273,0.845
		c0.127,0.253,0.293,0.456,0.496,0.611c0.205,0.155,0.467,0.228,0.786,0.22c0.353-0.01,0.642-0.141,0.866-0.395
		c0.226-0.254,0.409-0.575,0.551-0.963c0.143-0.389,0.26-0.823,0.351-1.306c0.092-0.482,0.188-0.966,0.286-1.448
		c0.099-0.515,0.223-1.018,0.369-1.51c0.147-0.492,0.348-0.93,0.603-1.312c0.254-0.382,0.578-0.695,0.972-0.938
		c0.394-0.242,0.887-0.371,1.479-0.386c0.752-0.02,1.38,0.12,1.883,0.419c0.505,0.299,0.915,0.696,1.231,1.192
		c0.317,0.496,0.544,1.059,0.681,1.688s0.213,1.255,0.229,1.879c0.019,0.688-0.037,1.346-0.164,1.973
		c-0.128,0.627-0.35,1.186-0.665,1.674s-0.737,0.883-1.266,1.186c-0.528,0.302-1.176,0.479-1.942,0.53l-0.054-2.039
		C56.551,293.187,56.928,293.072,57.234,292.872z"/>
	<path fill="#FFFFFF" d="M42.949,272.337l7.353,0.485l0.595-9.004l-7.353-0.486l0.15-2.274l17.099,1.129l-0.15,2.275l-7.83-0.518
		l-0.596,9.005l7.831,0.518l-0.15,2.274l-17.099-1.13L42.949,272.337z"/>
	<path fill="#FFFFFF" d="M62.268,250.787l-1.95-0.261l-0.007,0.048c0.704,0.529,1.189,1.151,1.458,1.865
		c0.268,0.714,0.341,1.522,0.22,2.427c-0.108,0.809-0.305,1.469-0.591,1.979c-0.287,0.511-0.65,0.906-1.091,1.187
		c-0.441,0.28-0.944,0.451-1.51,0.513s-1.181,0.048-1.847-0.042l-8.088-1.081l0.271-2.022l8.325,1.113
		c0.762,0.103,1.395-0.039,1.897-0.424s0.807-0.966,0.911-1.742c0.082-0.619,0.059-1.167-0.071-1.645s-0.349-0.89-0.657-1.238
		c-0.309-0.348-0.687-0.628-1.135-0.842c-0.447-0.213-0.948-0.356-1.504-0.431l-6.946-0.929l0.271-2.022l12.299,1.645
		L62.268,250.787z"/>
	<path fill="#FFFFFF" d="M51.107,241.729l1.784,0.375l0.01-0.047c-1.187-1.197-1.601-2.65-1.242-4.356
		c0.158-0.752,0.458-1.4,0.899-1.945s1.064-0.863,1.868-0.956c-0.572-0.545-0.968-1.188-1.188-1.93
		c-0.22-0.741-0.246-1.511-0.079-2.31c0.129-0.61,0.312-1.148,0.548-1.613c0.237-0.466,0.533-0.845,0.889-1.138
		c0.356-0.293,0.778-0.49,1.266-0.593c0.487-0.102,1.044-0.087,1.67,0.045l8.902,1.87l-0.42,1.996l-7.962-1.673
		c-0.376-0.079-0.735-0.121-1.077-0.128s-0.652,0.051-0.931,0.172c-0.279,0.122-0.521,0.319-0.727,0.596
		c-0.205,0.275-0.358,0.656-0.46,1.142c-0.208,0.986-0.089,1.82,0.356,2.503c0.445,0.682,1.138,1.122,2.077,1.319l7.562,1.589
		l-0.419,1.997l-7.962-1.674c-0.392-0.082-0.76-0.122-1.104-0.121c-0.343,0.001-0.654,0.062-0.934,0.184
		c-0.278,0.122-0.515,0.313-0.709,0.575c-0.193,0.262-0.339,0.619-0.435,1.073c-0.121,0.579-0.108,1.102,0.039,1.565
		c0.147,0.465,0.359,0.86,0.634,1.188s0.575,0.587,0.903,0.778c0.327,0.191,0.608,0.312,0.844,0.361l7.562,1.589l-0.42,1.997
		l-12.143-2.552L51.107,241.729z"/>
	<path fill="#FFFFFF" d="M70.243,215.885c0.102,0.396,0.066,0.894-0.106,1.493c-0.146,0.508-0.404,0.87-0.775,1.088
		s-0.879,0.233-1.524,0.047c0.49,0.725,0.774,1.485,0.853,2.282s-0.002,1.61-0.241,2.44c-0.155,0.538-0.364,1.031-0.627,1.48
		c-0.263,0.448-0.576,0.812-0.939,1.09c-0.363,0.279-0.786,0.461-1.269,0.546c-0.482,0.086-1.023,0.042-1.623-0.131
		c-0.677-0.195-1.197-0.47-1.561-0.824c-0.364-0.355-0.627-0.76-0.787-1.214s-0.24-0.943-0.238-1.468
		c0.001-0.524,0.029-1.053,0.083-1.587c0.048-0.569,0.114-1.104,0.2-1.604s0.132-0.948,0.139-1.347
		c0.006-0.397-0.056-0.731-0.186-1.002s-0.38-0.46-0.749-0.565c-0.43-0.125-0.799-0.144-1.107-0.058
		c-0.308,0.086-0.567,0.236-0.779,0.449c-0.211,0.214-0.386,0.473-0.522,0.773c-0.137,0.303-0.25,0.607-0.339,0.914
		c-0.239,0.83-0.281,1.567-0.126,2.212c0.156,0.645,0.665,1.116,1.528,1.415l-0.565,1.96c-0.729-0.243-1.308-0.577-1.734-1
		c-0.428-0.423-0.732-0.91-0.915-1.463c-0.182-0.552-0.257-1.144-0.225-1.775s0.146-1.286,0.341-1.962
		c0.155-0.538,0.349-1.062,0.578-1.57c0.229-0.508,0.525-0.942,0.887-1.305c0.362-0.361,0.796-0.611,1.301-0.749
		s1.103-0.106,1.792,0.092l6.121,1.766c0.461,0.133,0.806,0.204,1.036,0.212s0.39-0.142,0.479-0.449
		c0.049-0.169,0.075-0.378,0.08-0.626L70.243,215.885z M63.214,217.305c0.113,0.299,0.153,0.66,0.123,1.084
		c-0.031,0.425-0.083,0.863-0.156,1.316c-0.072,0.454-0.139,0.914-0.198,1.379c-0.061,0.466-0.064,0.897-0.014,1.296
		c0.051,0.397,0.186,0.748,0.404,1.053s0.573,0.527,1.062,0.669c0.321,0.093,0.611,0.105,0.871,0.039s0.488-0.185,0.686-0.353
		c0.198-0.167,0.367-0.381,0.508-0.64c0.142-0.26,0.256-0.542,0.345-0.851c0.187-0.646,0.258-1.224,0.215-1.736
		c-0.043-0.512-0.156-0.952-0.34-1.321c-0.183-0.369-0.412-0.669-0.686-0.897s-0.548-0.383-0.823-0.462L63.214,217.305z"/>
	<path fill="#FFFFFF" d="M59.75,208.406l1.855,0.653l0.017-0.045c-1.137-1.299-1.4-2.816-0.789-4.553
		c0.271-0.77,0.604-1.373,0.995-1.812c0.392-0.438,0.833-0.75,1.321-0.934c0.489-0.185,1.017-0.248,1.582-0.193
		c0.565,0.056,1.166,0.194,1.8,0.417l7.696,2.711l-0.678,1.925l-7.923-2.791c-0.725-0.255-1.372-0.245-1.943,0.028
		s-0.987,0.78-1.248,1.52c-0.207,0.589-0.296,1.13-0.267,1.624c0.029,0.493,0.16,0.942,0.391,1.346
		c0.231,0.404,0.544,0.756,0.938,1.056c0.396,0.301,0.856,0.544,1.385,0.729l6.61,2.328l-0.678,1.924l-11.704-4.122L59.75,208.406z"
		/>
	<path fill="#FFFFFF" d="M67.068,198.877c-0.631-0.543-1.115-1.164-1.455-1.862s-0.519-1.46-0.536-2.283
		c-0.019-0.823,0.162-1.685,0.541-2.585c0.385-0.914,0.877-1.648,1.476-2.204c0.598-0.555,1.266-0.955,2.003-1.201
		c0.736-0.244,1.52-0.332,2.349-0.261c0.829,0.072,1.664,0.284,2.505,0.639c0.841,0.354,1.572,0.801,2.195,1.341
		c0.624,0.54,1.105,1.16,1.444,1.858c0.34,0.698,0.517,1.454,0.53,2.267c0.013,0.813-0.173,1.677-0.558,2.591
		c-0.379,0.9-0.865,1.633-1.459,2.198c-0.594,0.566-1.26,0.972-1.997,1.217c-0.736,0.245-1.516,0.334-2.338,0.266
		c-0.821-0.068-1.653-0.28-2.493-0.634C68.435,199.869,67.699,199.42,67.068,198.877z M72.076,198.733
		c0.616,0.042,1.173-0.022,1.671-0.195c0.498-0.172,0.935-0.436,1.31-0.79c0.374-0.354,0.664-0.774,0.869-1.261
		c0.205-0.487,0.304-0.988,0.295-1.504s-0.125-1.012-0.351-1.488c-0.225-0.477-0.566-0.92-1.027-1.331s-1.037-0.763-1.73-1.055
		s-1.348-0.458-1.964-0.501c-0.615-0.042-1.176,0.021-1.682,0.19c-0.505,0.169-0.945,0.432-1.32,0.785
		c-0.374,0.354-0.664,0.774-0.869,1.262c-0.205,0.486-0.303,0.988-0.295,1.503c0.009,0.517,0.129,1.014,0.361,1.493
		s0.578,0.925,1.039,1.336s1.037,0.763,1.73,1.055C70.807,198.523,71.461,198.691,72.076,198.733z"/>
	<path fill="#FFFFFF" d="M78.794,186.942c0.364-0.035,0.698-0.152,1-0.352c0.303-0.199,0.576-0.457,0.82-0.774
		c0.244-0.316,0.458-0.661,0.641-1.035c0.141-0.287,0.268-0.6,0.379-0.938c0.111-0.337,0.175-0.666,0.19-0.989
		c0.015-0.321-0.046-0.623-0.185-0.905c-0.139-0.281-0.38-0.507-0.725-0.675c-0.475-0.232-0.922-0.229-1.342,0.011
		c-0.42,0.24-0.838,0.592-1.253,1.057c-0.414,0.465-0.838,0.984-1.27,1.557s-0.891,1.073-1.377,1.503
		c-0.486,0.431-1.02,0.727-1.598,0.889s-1.227,0.067-1.945-0.284c-0.561-0.274-0.979-0.636-1.259-1.085
		c-0.279-0.448-0.448-0.932-0.506-1.45c-0.059-0.518-0.027-1.055,0.094-1.61c0.12-0.556,0.3-1.078,0.539-1.566
		c0.31-0.632,0.648-1.188,1.017-1.667c0.368-0.479,0.786-0.857,1.252-1.137c0.467-0.279,0.985-0.431,1.558-0.453
		c0.572-0.023,1.207,0.109,1.903,0.396l-0.896,1.833c-0.374-0.147-0.718-0.2-1.032-0.158s-0.604,0.15-0.866,0.324
		c-0.264,0.174-0.5,0.393-0.709,0.655s-0.387,0.545-0.535,0.847c-0.133,0.273-0.247,0.561-0.341,0.861
		c-0.095,0.302-0.144,0.594-0.148,0.876c-0.005,0.283,0.047,0.54,0.156,0.771c0.109,0.232,0.308,0.418,0.595,0.559
		c0.316,0.155,0.634,0.173,0.951,0.052s0.629-0.32,0.934-0.599c0.306-0.277,0.61-0.609,0.915-0.995
		c0.305-0.385,0.612-0.769,0.924-1.15c0.326-0.411,0.668-0.8,1.026-1.168s0.738-0.663,1.142-0.885
		c0.402-0.221,0.834-0.348,1.295-0.381c0.462-0.032,0.958,0.082,1.489,0.342c0.676,0.331,1.168,0.745,1.476,1.244
		c0.309,0.498,0.488,1.04,0.54,1.627c0.052,0.586-0.008,1.189-0.179,1.81c-0.17,0.621-0.392,1.211-0.666,1.771
		c-0.303,0.618-0.656,1.175-1.06,1.672c-0.404,0.498-0.858,0.89-1.364,1.177s-1.062,0.441-1.671,0.465
		c-0.607,0.022-1.264-0.12-1.968-0.43l0.897-1.832C78.042,186.904,78.429,186.979,78.794,186.942z"/>
</g>
<g>
	<path fill="#33393D" d="M11.283,335.196c-0.056-0.302-0.113-0.626-0.172-0.976c-0.058-0.348-0.103-0.695-0.133-1.043
		c-0.031-0.347-0.041-0.674-0.03-0.98c0.011-0.308,0.062-0.578,0.153-0.812c0.19-0.51,0.498-0.971,0.923-1.383
		c0.425-0.411,0.991-0.683,1.699-0.814c0.747-0.14,1.427-0.08,2.037,0.18c0.611,0.259,1.11,0.698,1.497,1.318l0.039-0.008
		c0.022-0.899,0.293-1.635,0.81-2.206c0.518-0.571,1.209-0.937,2.074-1.099c0.511-0.096,1.026-0.096,1.545-0.003
		c0.52,0.093,0.999,0.285,1.44,0.575c0.44,0.291,0.825,0.681,1.153,1.169c0.328,0.487,0.558,1.079,0.687,1.774l1.265,6.783
		l-14.038,2.617L11.283,335.196z M17.224,333.56c-0.197-1.062-0.526-1.79-0.987-2.187c-0.46-0.395-1.063-0.523-1.811-0.384
		c-0.498,0.093-0.877,0.245-1.136,0.456s-0.441,0.469-0.548,0.773c-0.105,0.305-0.148,0.641-0.127,1.01s0.07,0.758,0.146,1.163
		l0.696,3.735l4.464-0.832L17.224,333.56z M23.478,331.418c-0.154-0.826-0.497-1.43-1.029-1.812c-0.532-0.382-1.192-0.5-1.979-0.354
		c-0.459,0.086-0.823,0.242-1.093,0.469s-0.467,0.497-0.592,0.812c-0.124,0.315-0.188,0.663-0.191,1.043s0.031,0.767,0.104,1.161
		l0.795,4.266l4.856-0.905L23.478,331.418z"/>
	<path fill="#33393D" d="M9.492,324.457l14.123-2.117l0.281,1.879l-14.122,2.117L9.492,324.457z"/>
	<path fill="#33393D" d="M7.821,311.139l1.589-0.186l0.923,7.906l4.509-0.525l-0.859-7.371l1.59-0.186l0.859,7.371l4.906-0.572
		l-0.929-7.967l1.589-0.186l1.149,9.854l-14.184,1.654L7.821,311.139z"/>
	<path fill="#33393D" d="M7.417,306.262l11.056-8.271l-0.003-0.041l-11.555,0.769l-0.119-1.796l14.249-0.947l0.138,2.076
		l-10.94,8.203l0.003,0.039l11.435-0.76l0.119,1.797l-14.248,0.946L7.417,306.262z"/>
	<path fill="#33393D" d="M6.506,283.456l1.601-0.027l0.135,7.959l4.54-0.077l-0.127-7.419l1.6-0.027l0.127,7.419l4.939-0.084
		l-0.137-8.019l1.6-0.027l0.169,9.919l-14.278,0.242L6.506,283.456z"/>
	<path fill="#33393D" d="M8.694,273.489c-0.479,0.619-0.732,1.424-0.762,2.408c-0.012,0.4,0.017,0.795,0.086,1.184
		c0.068,0.389,0.191,0.736,0.369,1.041c0.178,0.307,0.421,0.553,0.729,0.742s0.695,0.291,1.161,0.305
		c0.44,0.012,0.801-0.107,1.081-0.359c0.281-0.252,0.515-0.592,0.7-1.02c0.187-0.428,0.345-0.914,0.474-1.457
		s0.269-1.096,0.419-1.658c0.149-0.562,0.322-1.113,0.519-1.654s0.454-1.025,0.772-1.449c0.32-0.424,0.717-0.758,1.19-1.006
		c0.475-0.246,1.064-0.357,1.771-0.338c0.76,0.023,1.404,0.213,1.935,0.568c0.529,0.355,0.957,0.805,1.281,1.348
		s0.553,1.146,0.687,1.811s0.191,1.324,0.172,1.977c-0.023,0.799-0.146,1.553-0.366,2.26s-0.542,1.324-0.965,1.854
		c-0.422,0.527-0.955,0.938-1.597,1.232c-0.643,0.295-1.396,0.43-2.263,0.404l0.053-1.799c0.6,0.018,1.119-0.084,1.56-0.305
		c0.439-0.221,0.806-0.518,1.097-0.889s0.511-0.809,0.658-1.311c0.148-0.502,0.23-1.021,0.246-1.555
		c0.013-0.426-0.015-0.857-0.082-1.293c-0.067-0.434-0.192-0.828-0.376-1.182c-0.183-0.352-0.438-0.639-0.765-0.861
		s-0.75-0.344-1.27-0.357c-0.493-0.016-0.897,0.104-1.211,0.354c-0.314,0.252-0.574,0.59-0.78,1.018s-0.377,0.912-0.514,1.455
		c-0.136,0.543-0.275,1.096-0.419,1.658c-0.143,0.564-0.306,1.115-0.488,1.658c-0.183,0.541-0.417,1.023-0.703,1.449
		s-0.649,0.762-1.09,1.008c-0.44,0.248-0.988,0.361-1.641,0.342c-0.72-0.021-1.339-0.186-1.856-0.494s-0.939-0.711-1.266-1.207
		c-0.325-0.496-0.562-1.059-0.711-1.682c-0.147-0.625-0.213-1.264-0.193-1.918c0.021-0.732,0.128-1.408,0.319-2.031
		c0.192-0.621,0.481-1.162,0.868-1.625c0.388-0.461,0.868-0.82,1.442-1.078c0.575-0.256,1.256-0.387,2.043-0.391l-0.054,1.801
		C9.927,272.522,9.172,272.87,8.694,273.489z"/>
	<path fill="#33393D" d="M8.51,268.764l-1.596-0.119l0.853-11.388l1.596,0.119l-0.355,4.747l12.645,0.946l-0.142,1.896
		l-12.645-0.947L8.51,268.764z"/>
	<path fill="#33393D" d="M8.707,249.249l14.847-3.824l-0.252,2.085l-4.457,1.032l-0.726,5.996l4.077,2.105l-0.233,1.926
		l-13.509-7.235L8.707,249.249z M17.185,248.945l-6.897,1.562l-0.005,0.04l6.321,3.203L17.185,248.945z"/>
	<path fill="#33393D" d="M10.832,235.174c0.23-1.34,0.739-2.331,1.526-2.974s1.752-0.865,2.896-0.669
		c0.854,0.147,1.569,0.471,2.146,0.969s0.911,1.195,1,2.09l0.04,0.007c0.148-0.394,0.337-0.703,0.565-0.928
		c0.228-0.225,0.483-0.39,0.766-0.497c0.282-0.106,0.587-0.17,0.915-0.188c0.327-0.018,0.666-0.018,1.014,0.002
		c0.347,0.033,0.698,0.073,1.055,0.121c0.357,0.048,0.711,0.075,1.062,0.081c0.352,0.007,0.689-0.014,1.016-0.059
		c0.325-0.046,0.623-0.146,0.894-0.303l-0.359,2.089c-0.167,0.106-0.38,0.162-0.637,0.165c-0.258,0.003-0.542-0.016-0.854-0.056
		c-0.311-0.04-0.645-0.084-1.002-0.132s-0.712-0.068-1.065-0.062c-0.351-0.007-0.687,0.003-1.009,0.028
		c-0.322,0.026-0.613,0.104-0.873,0.235c-0.259,0.132-0.481,0.323-0.667,0.575c-0.186,0.253-0.318,0.608-0.397,1.068l-0.787,4.573
		l6.012,1.034l-0.322,1.873l-14.073-2.423L10.832,235.174z M17.286,235.879c0.002-0.405-0.067-0.772-0.207-1.101
		c-0.139-0.328-0.354-0.609-0.646-0.842c-0.291-0.232-0.693-0.394-1.205-0.481c-0.71-0.122-1.322-0.024-1.837,0.293
		s-0.848,0.916-0.999,1.796l-0.801,4.651l4.908,0.846l0.672-3.903C17.245,236.704,17.284,236.285,17.286,235.879z"/>
</g>
<g>
	<path fill="#33393D" d="M458.366,232.476c0.417,1.378,0.379,2.528-0.115,3.451c-0.493,0.923-1.379,1.577-2.655,1.963
		c-1.275,0.387-2.379,0.334-3.307-0.158c-0.93-0.492-1.597-1.429-2.001-2.811l-1.263-4.173l-5.59,1.692l-0.551-1.818l13.667-4.138
		L458.366,232.476z M451.634,233.845c0.3,1.038,0.739,1.73,1.319,2.077c0.578,0.347,1.275,0.397,2.093,0.15
		c0.816-0.247,1.366-0.675,1.649-1.283c0.281-0.608,0.267-1.429-0.047-2.462l-1.077-3.561l-5.015,1.519L451.634,233.845z"/>
	<path fill="#33393D" d="M461.86,246.334c0.291,1.329,0.192,2.438-0.295,3.33c-0.487,0.891-1.298,1.461-2.431,1.708
		c-0.848,0.186-1.632,0.156-2.354-0.089c-0.723-0.245-1.293-0.765-1.713-1.56l-0.039,0.008c0.01,0.421-0.049,0.778-0.176,1.072
		s-0.301,0.543-0.521,0.749c-0.221,0.205-0.48,0.378-0.777,0.518c-0.297,0.14-0.611,0.267-0.94,0.379
		c-0.333,0.1-0.675,0.195-1.022,0.285c-0.35,0.09-0.688,0.198-1.015,0.324s-0.634,0.272-0.918,0.437s-0.522,0.37-0.715,0.617
		l-0.452-2.071c0.113-0.162,0.29-0.292,0.527-0.392c0.238-0.1,0.508-0.19,0.812-0.27c0.304-0.08,0.63-0.165,0.978-0.255
		c0.35-0.09,0.686-0.205,1.011-0.344c0.327-0.126,0.636-0.262,0.925-0.407c0.288-0.145,0.528-0.328,0.719-0.546
		c0.191-0.22,0.325-0.481,0.402-0.784c0.076-0.303,0.065-0.683-0.034-1.139l-0.991-4.533l-5.959,1.303l-0.406-1.856l13.95-3.051
		L461.86,246.334z M455.615,248.11c0.15,0.376,0.353,0.69,0.605,0.942s0.559,0.431,0.916,0.537s0.791,0.104,1.299-0.008
		c0.703-0.154,1.233-0.474,1.591-0.962s0.44-1.168,0.25-2.041l-1.009-4.611l-4.865,1.064l0.846,3.869
		C455.343,247.33,455.465,247.733,455.615,248.11z"/>
	<path fill="#33393D" d="M463.579,255.741l-14.099,2.273l-0.302-1.875l14.098-2.273L463.579,255.741z"/>
	<path fill="#33393D" d="M450.352,264.423L464,257.878l0.222,2.028l-11.862,5.404l0.005,0.04l12.755,2.748l0.215,1.968
		l-14.748-3.495L450.352,264.423z"/>
	<path fill="#33393D" d="M465.674,278.36l-14.07,6.09l-0.075-2.099l4.241-1.714l-0.218-6.036l-4.354-1.444l-0.07-1.939l14.471,5.042
		L465.674,278.36z M457.347,279.981l6.569-2.618l-0.001-0.04l-6.743-2.178L457.347,279.981z"/>
	<path fill="#33393D" d="M463.44,294.748c0.537-0.705,0.827-1.557,0.87-2.556c0.037-0.853-0.092-1.589-0.386-2.208
		c-0.294-0.62-0.702-1.139-1.225-1.555s-1.126-0.732-1.812-0.948c-0.684-0.216-1.4-0.34-2.146-0.372
		c-0.812-0.035-1.586,0.025-2.319,0.181c-0.734,0.155-1.38,0.418-1.936,0.788c-0.557,0.37-1.008,0.854-1.354,1.453
		c-0.347,0.6-0.537,1.325-0.574,2.178c-0.027,0.626,0.053,1.187,0.238,1.682s0.453,0.927,0.805,1.296
		c0.352,0.368,0.775,0.664,1.273,0.885c0.498,0.222,1.039,0.365,1.623,0.431l-0.081,1.897c-1.79-0.264-3.163-0.942-4.116-2.038
		c-0.954-1.095-1.393-2.555-1.314-4.38c0.048-1.105,0.279-2.063,0.694-2.873s0.967-1.474,1.657-1.991
		c0.689-0.518,1.492-0.894,2.41-1.127c0.917-0.234,1.896-0.329,2.935-0.285s2.009,0.233,2.909,0.565
		c0.898,0.332,1.677,0.796,2.332,1.391c0.654,0.596,1.16,1.324,1.518,2.188c0.356,0.862,0.512,1.84,0.465,2.933
		c-0.031,0.745-0.162,1.447-0.391,2.104c-0.229,0.658-0.547,1.238-0.955,1.741s-0.91,0.915-1.504,1.236
		c-0.595,0.321-1.273,0.52-2.037,0.594l0.08-1.898C462.123,295.889,462.902,295.452,463.44,294.748z"/>
	<path fill="#33393D" d="M464.747,303.225l-14.208-1.423l0.188-1.891l14.209,1.423L464.747,303.225z"/>
	<path fill="#33393D" d="M463.625,311.868c-0.342,2.173-1.158,3.758-2.449,4.757c-1.291,0.998-3.069,1.318-5.334,0.962
		c-1.186-0.187-2.216-0.484-3.09-0.892s-1.58-0.937-2.119-1.589c-0.538-0.651-0.904-1.432-1.1-2.339
		c-0.193-0.908-0.199-1.948-0.014-3.12l0.762-4.841l14.105,2.221L463.625,311.868z M451.074,310.054
		c-0.033,0.211-0.059,0.477-0.074,0.798c-0.018,0.321,0.009,0.67,0.078,1.045c0.068,0.376,0.195,0.757,0.377,1.143
		c0.182,0.387,0.455,0.75,0.82,1.091c0.364,0.341,0.84,0.648,1.424,0.923s1.311,0.479,2.181,0.617
		c0.843,0.132,1.61,0.169,2.301,0.108c0.69-0.06,1.3-0.24,1.827-0.542c0.525-0.302,0.958-0.73,1.295-1.284
		c0.337-0.555,0.574-1.267,0.711-2.136l0.498-3.161l-10.945-1.723L451.074,310.054z"/>
	<path fill="#33393D" d="M460.495,327.55l-15.188,2.095l0.489-2.042l4.546-0.514l1.409-5.873l-3.809-2.56l0.453-1.886l12.589,8.737
		L460.495,327.55z M452.039,326.879l7.031-0.761l0.009-0.039l-5.911-3.907L452.039,326.879z"/>
	<path fill="#33393D" d="M457.004,339.835c-0.682,2.092-1.739,3.527-3.172,4.309c-1.434,0.781-3.24,0.816-5.42,0.104
		c-1.141-0.372-2.11-0.828-2.908-1.369c-0.799-0.541-1.412-1.176-1.841-1.904s-0.667-1.557-0.715-2.484s0.112-1.955,0.479-3.083
		l1.52-4.658l13.576,4.428L457.004,339.835z M444.899,336.056c-0.065,0.202-0.133,0.461-0.2,0.775
		c-0.068,0.315-0.098,0.663-0.088,1.045c0.008,0.381,0.072,0.777,0.19,1.188c0.119,0.41,0.331,0.812,0.638,1.207
		c0.306,0.395,0.726,0.773,1.26,1.137c0.533,0.363,1.219,0.682,2.055,0.954c0.812,0.265,1.562,0.422,2.255,0.473
		c0.692,0.05,1.321-0.032,1.89-0.246c0.567-0.215,1.062-0.569,1.482-1.062c0.42-0.494,0.768-1.159,1.04-1.996l0.992-3.042
		l-10.534-3.437L444.899,336.056z"/>
</g>
<g>
	<path fill="#33393D" d="M245.607,453.014c-0.588-0.664-1.367-1.113-2.34-1.348c-0.83-0.2-1.576-0.216-2.241-0.047
		s-1.252,0.469-1.761,0.902c-0.51,0.433-0.936,0.965-1.279,1.594c-0.346,0.631-0.604,1.309-0.779,2.035
		c-0.191,0.79-0.281,1.561-0.27,2.311c0.011,0.75,0.145,1.434,0.4,2.051c0.255,0.617,0.644,1.152,1.165,1.607
		c0.521,0.456,1.196,0.783,2.026,0.984c0.608,0.146,1.174,0.177,1.695,0.09s0.998-0.267,1.428-0.541
		c0.429-0.273,0.801-0.633,1.113-1.078c0.313-0.445,0.559-0.949,0.734-1.51l1.848,0.445c-0.604,1.705-1.535,2.922-2.793,3.646
		c-1.26,0.726-2.775,0.874-4.552,0.445c-1.076-0.26-1.972-0.671-2.686-1.234c-0.715-0.564-1.259-1.233-1.634-2.01
		c-0.375-0.775-0.59-1.637-0.643-2.582c-0.053-0.946,0.042-1.924,0.287-2.935c0.243-1.013,0.615-1.927,1.113-2.746
		c0.5-0.818,1.105-1.492,1.815-2.021s1.522-0.884,2.438-1.067c0.915-0.185,1.904-0.147,2.967,0.108
		c0.727,0.176,1.39,0.438,1.991,0.789c0.601,0.352,1.108,0.775,1.524,1.273c0.414,0.498,0.722,1.068,0.923,1.715
		c0.2,0.645,0.264,1.35,0.189,2.113l-1.847-0.446C246.473,454.525,246.195,453.676,245.607,453.014z"/>
	<path fill="#33393D" d="M250.264,456.432c0.422-0.846,0.969-1.566,1.641-2.164c0.674-0.598,1.463-1.035,2.371-1.312
		c0.905-0.277,1.919-0.33,3.039-0.155c1.119,0.174,2.07,0.53,2.85,1.069s1.4,1.195,1.859,1.969c0.461,0.772,0.764,1.626,0.909,2.559
		c0.146,0.934,0.144,1.882-0.007,2.843c-0.148,0.962-0.434,1.866-0.855,2.711c-0.422,0.846-0.969,1.567-1.641,2.165
		c-0.674,0.597-1.463,1.031-2.369,1.302c-0.904,0.271-1.917,0.319-3.037,0.146c-1.121-0.174-2.07-0.527-2.852-1.061
		c-0.781-0.531-1.401-1.184-1.861-1.957c-0.461-0.773-0.764-1.627-0.908-2.561c-0.146-0.933-0.143-1.88,0.006-2.842
		S249.843,457.277,250.264,456.432z M251.236,461.582c0.076,0.72,0.27,1.387,0.579,2.002c0.31,0.614,0.748,1.139,1.314,1.57
		c0.567,0.432,1.279,0.715,2.136,0.848s1.621,0.079,2.291-0.161c0.672-0.239,1.248-0.605,1.729-1.099
		c0.481-0.491,0.868-1.068,1.159-1.732c0.292-0.662,0.492-1.35,0.604-2.062c0.111-0.711,0.127-1.427,0.051-2.147
		c-0.078-0.721-0.271-1.389-0.58-2.003c-0.311-0.614-0.749-1.138-1.315-1.569c-0.567-0.434-1.279-0.715-2.136-0.848
		c-0.855-0.133-1.62-0.08-2.291,0.16c-0.672,0.24-1.248,0.605-1.729,1.098c-0.482,0.492-0.869,1.069-1.16,1.732
		c-0.292,0.664-0.492,1.351-0.603,2.062C251.176,460.145,251.158,460.861,251.236,461.582z"/>
	<path fill="#33393D" d="M267.877,454.487l6.676,12.086l0.04,0.003l0.825-11.551l1.795,0.129l-1.017,14.244l-2.075-0.148
		l-6.625-11.962l-0.039-0.003l-0.817,11.43l-1.794-0.127l1.016-14.244L267.877,454.487z"/>
	<path fill="#33393D" d="M278.367,456.796l-0.002-1.601l11.422-0.009v1.6l-4.76,0.004l0.011,12.681l-1.899,0.002l-0.012-12.681
		L278.367,456.796z"/>
	<path fill="#33393D" d="M297.674,454.651c1.355-0.096,2.439,0.161,3.252,0.772c0.812,0.609,1.26,1.494,1.341,2.65
		c0.062,0.865-0.081,1.638-0.427,2.316c-0.346,0.68-0.943,1.17-1.791,1.471l0.004,0.04c0.417,0.05,0.764,0.16,1.035,0.327
		c0.273,0.168,0.495,0.377,0.666,0.625c0.172,0.248,0.305,0.529,0.401,0.844c0.095,0.313,0.177,0.643,0.241,0.985
		c0.05,0.345,0.095,0.694,0.135,1.053c0.037,0.358,0.097,0.708,0.174,1.05c0.078,0.343,0.178,0.667,0.301,0.972
		c0.121,0.306,0.29,0.571,0.507,0.796l-2.114,0.15c-0.145-0.137-0.248-0.33-0.312-0.58c-0.064-0.248-0.114-0.529-0.15-0.841
		c-0.035-0.312-0.072-0.647-0.111-1.005c-0.038-0.357-0.104-0.707-0.194-1.049c-0.077-0.342-0.167-0.666-0.271-0.973
		c-0.102-0.307-0.247-0.57-0.437-0.791s-0.429-0.391-0.718-0.511s-0.667-0.163-1.133-0.13l-4.627,0.328l0.432,6.086l-1.895,0.134
		l-1.013-14.245L297.674,454.651z M298.531,461.087c0.395-0.095,0.734-0.249,1.02-0.464c0.285-0.213,0.506-0.489,0.662-0.828
		c0.157-0.338,0.217-0.768,0.18-1.287c-0.051-0.717-0.292-1.289-0.723-1.713c-0.432-0.424-1.092-0.604-1.982-0.54l-4.709,0.335
		l0.354,4.967l3.949-0.281C297.72,461.244,298.137,461.182,298.531,461.087z"/>
	<path fill="#33393D" d="M304.477,458.447c0.148-0.932,0.453-1.785,0.915-2.557s1.084-1.426,1.865-1.965
		c0.78-0.536,1.731-0.892,2.852-1.062s2.134-0.116,3.04,0.164c0.905,0.279,1.695,0.719,2.365,1.317
		c0.672,0.599,1.217,1.321,1.637,2.168c0.419,0.847,0.701,1.751,0.85,2.713c0.146,0.962,0.146,1.91-0.002,2.843
		c-0.146,0.933-0.452,1.785-0.914,2.557c-0.463,0.772-1.085,1.424-1.867,1.955c-0.781,0.53-1.732,0.881-2.854,1.053
		c-1.12,0.17-2.133,0.119-3.037-0.153c-0.905-0.272-1.694-0.71-2.365-1.31c-0.671-0.598-1.217-1.32-1.636-2.166
		c-0.419-0.847-0.702-1.752-0.849-2.714C304.329,460.328,304.33,459.381,304.477,458.447z M306.953,463.066
		c0.289,0.664,0.675,1.242,1.154,1.736c0.48,0.492,1.057,0.86,1.727,1.102c0.67,0.242,1.434,0.297,2.291,0.166
		c0.856-0.131,1.568-0.411,2.138-0.842c0.567-0.431,1.007-0.953,1.318-1.566c0.311-0.615,0.505-1.282,0.585-2.002
		c0.079-0.721,0.064-1.436-0.045-2.147c-0.109-0.713-0.309-1.399-0.599-2.063s-0.675-1.242-1.155-1.736
		c-0.479-0.492-1.055-0.859-1.727-1.102c-0.67-0.241-1.434-0.297-2.291-0.166c-0.856,0.131-1.568,0.412-2.137,0.842
		c-0.568,0.432-1.008,0.953-1.318,1.566c-0.311,0.615-0.506,1.281-0.585,2.002s-0.063,1.436,0.045,2.148
		C306.463,461.715,306.662,462.403,306.953,463.066z"/>
	<path fill="#33393D" d="M320.631,451.282l2.83,12.36l7.369-1.688l0.357,1.56l-9.221,2.112l-3.188-13.92L320.631,451.282z"/>
</g>
<g>
	<path fill="#33393D" d="M132.618,182.908l1.355,0.851l-3.98,6.333l3.844,2.416l3.49-5.555l1.355,0.852l-3.49,5.553l5.537,3.48
		l-1.012,1.608l-12.09-7.598L132.618,182.908z"/>
	<path fill="#33393D" d="M132.614,174.846l1.039,4.168l-0.733,1.049l-1.556-3.43L132.614,174.846z M134.221,180.68l11.702,8.183
		l1.089-1.557l-11.703-8.183L134.221,180.68z"/>
	<path fill="#33393D" d="M143.406,171.595c-0.753,0.216-1.433,0.713-2.04,1.49c-0.246,0.315-0.457,0.649-0.633,1.003
		c-0.174,0.354-0.28,0.707-0.318,1.058c-0.037,0.352,0.012,0.694,0.148,1.029c0.136,0.335,0.387,0.646,0.756,0.933
		c0.346,0.271,0.707,0.388,1.082,0.352c0.376-0.037,0.766-0.172,1.169-0.408c0.403-0.234,0.817-0.532,1.243-0.893
		c0.427-0.361,0.866-0.723,1.32-1.088c0.454-0.364,0.92-0.706,1.398-1.026c0.479-0.32,0.973-0.556,1.48-0.709
		c0.508-0.152,1.027-0.188,1.555-0.105s1.07,0.342,1.627,0.777c0.599,0.468,1.006,1.002,1.223,1.603
		c0.216,0.6,0.293,1.216,0.232,1.845c-0.06,0.63-0.232,1.252-0.519,1.867c-0.286,0.614-0.629,1.179-1.032,1.694
		c-0.492,0.63-1.036,1.165-1.633,1.604c-0.598,0.439-1.223,0.746-1.875,0.921s-1.326,0.191-2.018,0.048s-1.379-0.481-2.062-1.015
		l1.108-1.418c0.474,0.37,0.952,0.597,1.438,0.679c0.485,0.083,0.954,0.061,1.409-0.066c0.455-0.126,0.891-0.349,1.308-0.666
		c0.417-0.316,0.79-0.686,1.118-1.106c0.262-0.336,0.496-0.699,0.699-1.09c0.204-0.391,0.336-0.782,0.396-1.175
		c0.062-0.392,0.027-0.775-0.104-1.148c-0.132-0.373-0.402-0.72-0.812-1.04c-0.389-0.304-0.783-0.447-1.186-0.432
		c-0.401,0.016-0.812,0.135-1.23,0.357c-0.42,0.223-0.846,0.513-1.276,0.87c-0.431,0.356-0.87,0.719-1.319,1.088
		s-0.907,0.717-1.375,1.045s-0.943,0.579-1.426,0.752c-0.482,0.173-0.974,0.229-1.475,0.167c-0.502-0.062-1.01-0.294-1.525-0.696
		c-0.566-0.444-0.968-0.942-1.202-1.498s-0.336-1.13-0.305-1.723c0.032-0.593,0.173-1.185,0.424-1.776
		c0.251-0.591,0.577-1.144,0.979-1.659c0.451-0.578,0.938-1.06,1.461-1.447c0.521-0.387,1.076-0.652,1.662-0.795
		c0.586-0.143,1.186-0.147,1.8-0.015c0.616,0.134,1.24,0.433,1.878,0.896l-1.109,1.418
		C144.971,171.545,144.159,171.379,143.406,171.595z"/>
	<path fill="#33393D" d="M147.251,164.001l10.772,9.374l-1.247,1.433l-10.772-9.373L147.251,164.001z"/>
	<path fill="#33393D" d="M157.176,156.355c-0.869,0.17-1.652,0.614-2.348,1.333c-0.594,0.613-0.986,1.249-1.178,1.907
		c-0.193,0.658-0.231,1.317-0.117,1.975s0.355,1.295,0.725,1.912c0.367,0.617,0.82,1.184,1.357,1.704
		c0.584,0.565,1.202,1.034,1.854,1.405c0.652,0.372,1.309,0.604,1.971,0.697c0.661,0.093,1.32,0.03,1.977-0.188
		c0.656-0.218,1.281-0.634,1.875-1.247c0.436-0.45,0.749-0.921,0.939-1.415c0.189-0.494,0.276-0.995,0.258-1.504
		c-0.018-0.509-0.139-1.012-0.363-1.507s-0.534-0.962-0.928-1.4l1.32-1.364c1.165,1.385,1.739,2.805,1.725,4.258
		c-0.014,1.452-0.656,2.834-1.927,4.147c-0.771,0.795-1.579,1.357-2.427,1.687c-0.848,0.33-1.701,0.459-2.561,0.388
		c-0.859-0.071-1.71-0.323-2.551-0.758c-0.842-0.434-1.637-1.013-2.384-1.736c-0.747-0.724-1.347-1.508-1.799-2.354
		c-0.452-0.846-0.726-1.709-0.82-2.589c-0.095-0.88,0.013-1.761,0.317-2.643c0.307-0.882,0.84-1.716,1.601-2.501
		c0.52-0.536,1.083-0.974,1.69-1.314c0.607-0.34,1.23-0.562,1.869-0.667c0.641-0.105,1.289-0.08,1.947,0.074
		c0.658,0.155,1.296,0.459,1.918,0.909l-1.322,1.366C158.918,156.377,158.045,156.186,157.176,156.355z"/>
	<path fill="#33393D" d="M163.142,153.716c-0.372-0.869-0.567-1.752-0.587-2.652c-0.02-0.899,0.158-1.785,0.534-2.656
		c0.375-0.87,0.992-1.676,1.849-2.417c0.858-0.741,1.746-1.234,2.661-1.479c0.915-0.245,1.817-0.292,2.704-0.143
		c0.887,0.15,1.733,0.472,2.539,0.965c0.805,0.494,1.526,1.108,2.162,1.845c0.637,0.736,1.141,1.539,1.513,2.407
		c0.372,0.869,0.566,1.753,0.586,2.652s-0.161,1.782-0.54,2.647c-0.381,0.866-0.999,1.669-1.855,2.41
		c-0.858,0.742-1.743,1.237-2.654,1.487c-0.912,0.25-1.811,0.301-2.698,0.151s-1.733-0.472-2.538-0.965
		c-0.806-0.494-1.527-1.108-2.163-1.845C164.017,155.387,163.512,154.584,163.142,153.716z M167.696,156.309
		c0.599,0.408,1.233,0.693,1.902,0.854c0.668,0.163,1.351,0.167,2.047,0.015c0.697-0.152,1.372-0.512,2.029-1.079
		c0.655-0.567,1.109-1.184,1.36-1.85c0.253-0.667,0.347-1.343,0.283-2.029c-0.063-0.685-0.253-1.353-0.569-2.004
		c-0.316-0.652-0.711-1.25-1.181-1.795c-0.472-0.544-1.007-1.021-1.605-1.429c-0.599-0.407-1.232-0.692-1.901-0.854
		s-1.352-0.167-2.048-0.015s-1.373,0.513-2.028,1.079c-0.656,0.566-1.109,1.183-1.361,1.85c-0.252,0.667-0.346,1.343-0.283,2.029
		c0.064,0.685,0.254,1.353,0.57,2.005s0.71,1.25,1.181,1.795C166.563,155.425,167.096,155.902,167.696,156.309z"/>
</g>
</svg>
